<svg width="96" height="96" viewBox="0 0 96 96" fill="none" xmlns="http://www.w3.org/2000/svg">
<g clip-path="url(#clip0_8_103)">
<rect width="96" height="96" rx="8" fill="#E3E3E3"/>
<path d="M0 8C0 3.58172 3.58172 0 8 0H48V48H0V8Z" fill="#1E1E1E"/>
<path d="M27.3333 7.33333H14C13.1159 7.33333 12.2681 7.68452 11.6429 8.30964C11.0178 8.93476 10.6666 9.78261 10.6666 10.6667V37.3333C10.6666 38.2174 11.0178 39.0652 11.6429 39.6904C12.2681 40.3155 13.1159 40.6667 14 40.6667H34C34.884 40.6667 35.7319 40.3155 36.357 39.6904C36.9821 39.0652 37.3333 38.2174 37.3333 37.3333V17.3333M27.3333 7.33333L37.3333 17.3333M27.3333 7.33333V17.3333H37.3333M30.6666 25.6667H17.3333M30.6666 32.3333H17.3333M20.6666 19H17.3333" stroke="white" stroke-width="4" stroke-linecap="round" stroke-linejoin="round"/>
<path d="M48 0H88C92.4183 0 96 3.58172 96 8V48H48V0Z" fill="white"/>
<path d="M72 9H83.6667C84.5507 9 85.3986 9.35119 86.0237 9.97631C86.6488 10.6014 87 11.4493 87 12.3333V35.6667C87 36.5507 86.6488 37.3986 86.0237 38.0237C85.3986 38.6488 84.5507 39 83.6667 39H72M72 9H60.3333C59.4493 9 58.6014 9.35119 57.9763 9.97631C57.3512 10.6014 57 11.4493 57 12.3333V35.6667C57 36.5507 57.3512 37.3986 57.9763 38.0237C58.6014 38.6488 59.4493 39 60.3333 39H72M72 9V39" stroke="#2C2C2C" stroke-width="4" stroke-linecap="round" stroke-linejoin="round"/>
<path d="M0 48H48V96H8C3.58172 96 0 92.4183 0 88V48Z" fill="white"/>
<g clip-path="url(#clip1_8_103)">
<path d="M42.3333 58.6667V68.6667M42.3333 68.6667H32.3333M42.3333 68.6667L34.6 61.4C32.8087 59.6078 30.5927 58.2987 28.1586 57.5946C25.7245 56.8906 23.1518 56.8146 20.6804 57.3738C18.2091 57.9329 15.9196 59.109 14.0257 60.7924C12.1318 62.4757 10.6952 64.6113 9.84996 67M5.66663 85.3333V75.3333M5.66663 75.3333H15.6666M5.66663 75.3333L13.4 82.6C15.1912 84.3921 17.4072 85.7013 19.8413 86.4054C22.2754 87.1094 24.8481 87.1854 27.3195 86.6262C29.7908 86.0671 32.0803 84.8909 33.9742 83.2076C35.8681 81.5243 37.3047 79.3887 38.15 77" stroke="#2C2C2C" stroke-width="4" stroke-linecap="round" stroke-linejoin="round"/>
</g>
<path d="M48 48H96V88C96 92.4183 92.4183 96 88 96H48V48Z" fill="#1E1E1E"/>
<path d="M79.5 67.6667L64.5 59.0167M57.45 63.6L72 72.0167L86.55 63.6M72 88.8V72M87 78.6667V65.3333C86.9994 64.7488 86.8451 64.1747 86.5526 63.6686C86.26 63.1625 85.8396 62.7423 85.3333 62.45L73.6667 55.7833C73.1599 55.4908 72.5851 55.3367 72 55.3367C71.4149 55.3367 70.8401 55.4908 70.3333 55.7833L58.6667 62.45C58.1604 62.7423 57.74 63.1625 57.4474 63.6686C57.1549 64.1747 57.0006 64.7488 57 65.3333V78.6667C57.0006 79.2512 57.1549 79.8253 57.4474 80.3314C57.74 80.8375 58.1604 81.2577 58.6667 81.55L70.3333 88.2167C70.8401 88.5092 71.4149 88.6632 72 88.6632C72.5851 88.6632 73.1599 88.5092 73.6667 88.2167L85.3333 81.55C85.8396 81.2577 86.26 80.8375 86.5526 80.3314C86.8451 79.8253 86.9994 79.2512 87 78.6667Z" stroke="white" stroke-width="4" stroke-linecap="round" stroke-linejoin="round"/>
</g>
<rect x="0.5" y="0.5" width="95" height="95" rx="7.5" stroke="#434343"/>
<defs>
<clipPath id="clip0_8_103">
<rect width="96" height="96" rx="8" fill="white"/>
</clipPath>
<clipPath id="clip1_8_103">
<path d="M4 52H44V84C44 88.4183 40.4183 92 36 92H4V52Z" fill="white"/>
</clipPath>
</defs>
</svg>
