<?xml version="1.0" encoding="UTF-8"?>
<svg version="1.1" xmlns="http://www.w3.org/2000/svg" width="500" height="500">
<path d="M0 0 C1.6208481 -0.00407295 3.24169343 -0.00941887 4.86253357 -0.01593018 C9.23438523 -0.02952251 13.60602279 -0.02433909 17.97787786 -0.01479292 C22.56960293 -0.00715547 27.16131064 -0.01425309 31.7530365 -0.01895142 C39.46039088 -0.02439658 47.16765878 -0.01724941 54.875 -0.00292969 C63.76658779 0.01340023 72.65796921 0.00810084 81.54955202 -0.0084089 C89.20593558 -0.02205226 96.86225725 -0.0239297 104.51864904 -0.0160929 C109.08180873 -0.01143276 113.64487163 -0.01074573 118.20802498 -0.02070236 C122.49849479 -0.02941157 126.78870017 -0.02327844 131.07914162 -0.00601959 C132.64718946 -0.00207602 134.21525982 -0.003152 135.78329849 -0.00980759 C149.26512968 -0.06172646 160.32263303 1.46686272 170.42553711 11.05224609 C173.68597588 14.63137437 175.83233841 18.3345147 177.71459961 22.78662109 C178.64698588 24.74227607 178.64698588 24.74227607 181.67163086 25.38818359 C184.0257043 25.48155373 186.382357 25.51331773 188.73828125 25.51416016 C189.81212067 25.51696236 189.81212067 25.51696236 190.90765381 25.51982117 C192.46271975 25.5238239 194.01779158 25.52589989 195.57286263 25.52628326 C198.88960476 25.52970698 202.20615233 25.55108645 205.52282619 25.57151413 C211.69476738 25.60945832 217.86650302 25.64080754 224.03857422 25.63867188 C228.33468932 25.63788074 232.63009414 25.66142215 236.92602348 25.70055389 C238.55609372 25.71095848 240.1862465 25.71257908 241.81633186 25.70490265 C252.64787394 25.65901099 261.05641683 26.50538879 269.54663086 33.88818359 C270.24788086 34.71318359 270.94913086 35.53818359 271.67163086 36.38818359 C272.37288086 37.15130859 273.07413086 37.91443359 273.79663086 38.70068359 C279.13357285 46.35030045 279.82590486 55.00597699 279.80534363 64.14129639 C279.80760918 64.89088977 279.80987474 65.64048316 279.81220895 66.41279149 C279.81850597 68.90818555 279.81772236 71.40352469 279.81689453 73.89892578 C279.81988873 75.69489613 279.82329186 77.49086585 279.82707214 79.28683472 C279.83589039 84.15477558 279.83824936 89.02269885 279.83888793 93.89064693 C279.83959974 96.93559641 279.84173654 99.98054144 279.84438515 103.02548981 C279.85363179 113.65876041 279.85772094 124.29201848 279.85693359 134.92529297 C279.85633317 144.81988349 279.86687972 154.71441944 279.88267726 164.60899615 C279.89577593 173.11794628 279.9011165 181.62687862 279.90047818 190.13583875 C279.90022386 195.2115987 279.90303894 200.28731013 279.91365623 205.36306 C279.92337627 210.14013274 279.92338972 214.91711098 279.9161396 219.69418716 C279.91509856 221.4408113 279.91742789 223.18744144 279.92350006 224.93405533 C279.97039473 239.36537055 279.99472 251.1908969 269.88647461 262.36083984 C260.64293397 271.30069127 249.76488376 271.97346122 237.46972656 271.84228516 C235.97058645 271.84115447 234.47144413 271.84179486 232.9723053 271.84405518 C228.93569708 271.84519462 224.89957219 271.82181146 220.86307549 271.79375935 C216.63239054 271.76861611 212.40169236 271.76639357 208.17094421 271.76165771 C200.17427921 271.74926567 192.17783507 271.7164956 184.18126696 271.67625976 C175.07118021 271.63142406 165.96108246 271.60952545 156.85091269 271.58947802 C138.12436058 271.54775925 119.39801353 271.47748123 100.67163086 271.38818359 C100.67163086 272.04818359 100.67163086 272.70818359 100.67163086 273.38818359 C100.01163086 273.38818359 99.35163086 273.38818359 98.67163086 273.38818359 C98.67163086 274.04818359 98.67163086 274.70818359 98.67163086 275.38818359 C98.01163086 275.38818359 97.35163086 275.38818359 96.67163086 275.38818359 C96.67163086 276.04818359 96.67163086 276.70818359 96.67163086 277.38818359 C96.01163086 277.38818359 95.35163086 277.38818359 94.67163086 277.38818359 C94.67163086 278.04818359 94.67163086 278.70818359 94.67163086 279.38818359 C93.21369397 280.64731091 91.7487711 281.89994735 90.23803711 283.09521484 C88.54216926 284.42521567 88.54216926 284.42521567 86.85913086 286.45068359 C82.58464376 290.23665788 77.29460274 292.60662405 71.54663086 292.76318359 C67.61121571 292.38233697 64.4048116 291.63257718 60.67163086 290.38818359 C60.67163086 289.72818359 60.67163086 289.06818359 60.67163086 288.38818359 C60.05288086 288.24380859 59.43413086 288.09943359 58.79663086 287.95068359 C56.67163086 287.38818359 56.67163086 287.38818359 54.67163086 286.38818359 C54.67163086 285.72818359 54.67163086 285.06818359 54.67163086 284.38818359 C54.01163086 284.38818359 53.35163086 284.38818359 52.67163086 284.38818359 C52.67163086 283.72818359 52.67163086 283.06818359 52.67163086 282.38818359 C52.01163086 282.38818359 51.35163086 282.38818359 50.67163086 282.38818359 C50.67163086 281.72818359 50.67163086 281.06818359 50.67163086 280.38818359 C50.01163086 280.38818359 49.35163086 280.38818359 48.67163086 280.38818359 C44.38883337 273.20413619 42.91583648 267.84526204 43.67163086 259.38818359 C44.42219467 256.80994816 45.41849948 254.79805162 46.67163086 252.38818359 C47.25944336 251.18162109 47.25944336 251.18162109 47.85913086 249.95068359 C48.12725586 249.43505859 48.39538086 248.91943359 48.67163086 248.38818359 C49.33163086 248.38818359 49.99163086 248.38818359 50.67163086 248.38818359 C50.67163086 247.72818359 50.67163086 247.06818359 50.67163086 246.38818359 C51.33163086 246.38818359 51.99163086 246.38818359 52.67163086 246.38818359 C53.00163086 245.39818359 53.33163086 244.40818359 53.67163086 243.38818359 C52.79990234 243.38009674 51.92817383 243.37200989 51.0300293 243.36367798 C42.79135665 243.28554847 34.55284335 243.19820306 26.31437683 243.10065651 C22.07949055 243.05083488 17.84462751 243.00450426 13.60961914 242.96630859 C9.51814487 242.9292764 5.42687204 242.88286923 1.33557129 242.83012009 C-0.22078904 242.81167098 -1.77719239 242.7965285 -3.33361816 242.78483963 C-18.35047689 242.66808357 -18.35047689 242.66808357 -25.32836914 240.38818359 C-26.05926758 240.15099609 -26.79016602 239.91380859 -27.54321289 239.66943359 C-36.0663883 235.80404792 -42.15761498 228.11723535 -45.67211914 219.59130859 C-47.22070491 214.39248492 -47.45785767 209.32023289 -47.47554016 203.92063904 C-47.48105519 202.82414861 -47.48105519 202.82414861 -47.48668164 201.70550686 C-47.49765525 199.26696151 -47.50155153 196.82845885 -47.50537109 194.38989258 C-47.51164059 192.63672248 -47.51828782 190.8835537 -47.52528381 189.13038635 C-47.54627125 183.38169267 -47.55668222 177.63299888 -47.56665039 171.88427734 C-47.57070013 169.90030466 -47.57481712 167.91633211 -47.57900047 165.9323597 C-47.5980416 156.60823207 -47.61227408 147.2841123 -47.62061244 137.95996898 C-47.63037676 127.2204798 -47.65667984 116.48119715 -47.69711334 105.7417807 C-47.72734179 97.42560007 -47.74208774 89.10947842 -47.74539346 80.79324394 C-47.7477365 75.83358553 -47.75659943 70.87414803 -47.78185463 65.91454887 C-47.80525803 61.24328662 -47.80931962 56.57238884 -47.79909325 51.90108299 C-47.79860072 50.19560275 -47.80483655 48.49010379 -47.81864929 46.78467941 C-47.91610968 34.02799392 -47.19554143 21.42208908 -38.32836914 11.38818359 C-37.66836914 11.38818359 -37.00836914 11.38818359 -36.32836914 11.38818359 C-35.99836914 10.39818359 -35.66836914 9.40818359 -35.32836914 8.38818359 C-25.4974192 -0.23361208 -12.30854604 -0.052318 0 0 Z M-10.67310715 54.64481449 C-12.35100352 57.42569697 -12.82620963 58.70671625 -12.81611633 61.89009094 C-12.82306015 62.76259491 -12.83000397 63.63509888 -12.8371582 64.53404236 C-12.82434814 65.47888992 -12.81153809 66.42373749 -12.79833984 67.3972168 C-12.80053024 68.40302795 -12.80272064 69.40883911 -12.80497742 70.44512939 C-12.8072912 73.77674095 -12.78098285 77.10747051 -12.75415039 80.43896484 C-12.74922049 82.77328716 -12.74592552 85.10761344 -12.7441864 87.44194031 C-12.73653675 92.34887227 -12.71597078 97.25551361 -12.68505859 102.16235352 C-12.64589918 108.38255891 -12.62751349 114.60257393 -12.61774921 120.82288837 C-12.60764159 126.81993856 -12.58786225 132.81694508 -12.56665039 138.81396484 C-12.56325464 139.92723963 -12.55985889 141.04051441 -12.55636024 142.1875248 C-12.51279218 154.06053943 -12.36596801 165.93126146 -12.00097656 177.79907227 C-11.97941403 178.82013471 -11.95785151 179.84119715 -11.93563557 180.89320087 C-11.9013404 181.83406638 -11.86704523 182.77493189 -11.83171082 183.74430847 C-11.80704333 184.57129336 -11.78237585 185.39827826 -11.75696087 186.2503233 C-11.22198025 188.91886248 -10.5414638 189.82157512 -8.32836914 191.38818359 C-6.24818745 191.84565689 -6.24818745 191.84565689 -3.91461182 191.7893219 C-3.01187531 191.80211685 -2.10913879 191.8149118 -1.17904663 191.82809448 C-0.19095001 191.82673492 0.79714661 191.82537537 1.81518555 191.82397461 C2.8577652 191.83405045 3.90034485 191.84412628 4.97451782 191.85450745 C8.43095545 191.88306964 11.88695746 191.88886871 15.34350586 191.89208984 C17.74383729 191.90172691 20.14416694 191.91181907 22.54449463 191.92234802 C27.58170658 191.94033131 32.61876406 191.94586695 37.65600586 191.9440918 C44.10701105 191.94378723 50.5570234 191.98470654 57.00779343 192.03640842 C61.96812475 192.06979049 66.92821684 192.07584873 71.88864899 192.07426262 C74.26648626 192.07780111 76.64432983 192.09106166 79.02205658 192.11425972 C82.35223984 192.14370188 85.68027922 192.13501303 89.01049805 192.11694336 C89.99049774 192.13380188 90.97049744 192.1506604 91.98019409 192.16802979 C97.95154033 192.08582089 101.15948082 191.01839167 105.51518631 186.87037563 C106.87667836 185.43870528 106.87667836 185.43870528 106.67163086 183.38818359 C107.33163086 183.38818359 107.99163086 183.38818359 108.67163086 183.38818359 C108.67163086 182.72818359 108.67163086 182.06818359 108.67163086 181.38818359 C89.53163086 181.38818359 70.39163086 181.38818359 50.67163086 181.38818359 C50.67163086 171.15818359 50.67163086 160.92818359 50.67163086 150.38818359 C54.26751099 150.42745972 54.26751099 150.42745972 57.93603516 150.4675293 C65.85880556 150.55039831 73.78159518 150.6056152 81.70468426 150.64724445 C86.50827151 150.67333214 91.31141452 150.70871492 96.11474609 150.76538086 C100.7507698 150.81973041 105.38636638 150.84961037 110.0226841 150.86256981 C111.79096005 150.87180444 113.55921276 150.88983789 115.32730675 150.91683388 C117.80546852 150.95316471 120.28186843 150.95812747 122.76025391 150.95581055 C123.49033661 150.97378693 124.22041931 150.99176331 124.97262573 151.01028442 C128.91145275 150.97047178 130.49130741 150.54067015 133.54206848 147.96086121 C134.24482407 147.11187759 134.94757965 146.26289398 135.67163086 145.38818359 C137.49519616 143.7979485 139.35129826 142.25863154 141.21850586 140.72021484 C142.79942269 139.4302145 142.79942269 139.4302145 143.67163086 137.38818359 C143.78012862 134.87686821 143.82894102 132.39285836 143.83276367 129.88085938 C143.83772858 129.10670685 143.84269348 128.33255432 143.84780884 127.53494263 C143.86244258 124.96778482 143.8692344 122.4006888 143.87475586 119.83349609 C143.88050625 118.05231728 143.88626399 116.27113849 143.89202881 114.48995972 C143.9025422 110.75241812 143.90838267 107.01489806 143.91186523 103.27734375 C143.91735116 98.48650446 143.94137979 93.69594922 143.96983719 88.90519905 C143.98845432 85.22491625 143.99366867 81.54470199 143.99520111 77.86437607 C143.99823019 76.09811729 144.0062673 74.33185978 144.01938629 72.56564713 C144.03642794 70.09497677 144.03457138 67.62500204 144.02807617 65.15429688 C144.04189835 64.05849304 144.04189835 64.05849304 144.05599976 62.94055176 C144.03051646 59.8485017 143.84188119 57.69722114 142.33685303 54.96530151 C139.19351985 51.98827708 135.90632583 52.2557201 131.7950592 52.23428345 C130.56824936 52.22568298 129.34143951 52.21708252 128.07745361 52.20822144 C126.71569867 52.20378642 125.35394327 52.19948804 123.9921875 52.1953125 C122.55982769 52.18741005 121.12746987 52.179141 119.69511414 52.17053223 C114.99069108 52.14433745 110.2862592 52.12901114 105.58178711 52.11474609 C103.96258476 52.10938613 102.34338246 52.10400862 100.72418022 52.09861374 C93.99092028 52.07699233 87.25766273 52.05825382 80.52437687 52.04699135 C70.87080741 52.03073795 61.21763951 51.99751844 51.56422144 51.9405905 C44.7777426 51.90193078 37.99137137 51.88236363 31.20478529 51.87707078 C27.15016102 51.87341298 23.09596528 51.86134624 19.04146004 51.82896805 C15.22870524 51.79895524 11.41663982 51.7925507 7.60379219 51.80435181 C6.20413141 51.80457309 4.80443924 51.79622255 3.40488815 51.77869797 C1.4951213 51.75608485 -0.41495682 51.76726164 -2.32481384 51.78018188 C-3.92841971 51.77521667 -3.92841971 51.77521667 -5.56442165 51.77015114 C-8.51756696 52.17921177 -8.51756696 52.17921177 -10.67310715 54.64481449 Z M220.67163086 79.38818359 C221.33163086 80.04818359 221.99163086 80.70818359 222.67163086 81.38818359 C222.67163086 80.72818359 222.67163086 80.06818359 222.67163086 79.38818359 C222.01163086 79.38818359 221.35163086 79.38818359 220.67163086 79.38818359 Z M208.67163086 114.38818359 C208.67163086 115.37818359 208.67163086 116.36818359 208.67163086 117.38818359 C211.14663086 118.37818359 211.14663086 118.37818359 213.67163086 119.38818359 C213.34163086 117.73818359 213.01163086 116.08818359 212.67163086 114.38818359 C211.35163086 114.38818359 210.03163086 114.38818359 208.67163086 114.38818359 Z M156.67163086 146.38818359 C156.67163086 147.04818359 156.67163086 147.70818359 156.67163086 148.38818359 C155.02163086 149.04818359 153.37163086 149.70818359 151.67163086 150.38818359 C151.67163086 151.04818359 151.67163086 151.70818359 151.67163086 152.38818359 C151.03225586 152.63568359 150.39288086 152.88318359 149.73413086 153.13818359 C147.51522548 154.20226658 147.51522548 154.20226658 146.85913086 156.38818359 C146.48711997 158.45978484 146.48711997 158.45978484 147.67163086 160.38818359 C151.58869219 161.61226526 155.45732088 161.41107922 159.51147461 161.35693359 C161.99122805 161.39280706 164.27214326 161.76896099 166.67163086 162.38818359 C166.42413086 161.36724609 166.42413086 161.36724609 166.17163086 160.32568359 C165.28876379 155.13883958 165.61840814 150.50383678 166.67163086 145.38818359 C165.56729166 144.0639811 165.56729166 144.0639811 162.79663086 144.20068359 C159.50592328 144.13474846 159.50592328 144.13474846 156.67163086 146.38818359 Z M216.67163086 154.38818359 C216.34163086 155.70818359 216.01163086 157.02818359 215.67163086 158.38818359 C217.42407333 160.0365469 217.42407333 160.0365469 219.67163086 161.38818359 C221.87963614 161.17101008 221.87963614 161.17101008 223.67163086 160.38818359 C222.05568254 158.34698571 220.38599266 156.34745422 218.67163086 154.38818359 C218.01163086 154.38818359 217.35163086 154.38818359 216.67163086 154.38818359 Z M147.85652161 175.69535828 C147.11202255 176.42857803 146.3675235 177.16179779 145.60046387 177.91723633 C144.79355103 178.73224609 143.98663818 179.54725586 143.15527344 180.38696289 C141.8693354 181.66238701 141.8693354 181.66238701 140.55741882 182.96357727 C138.20700793 185.29938134 135.86597777 187.64386137 133.52922654 189.99328589 C131.08264865 192.44998414 128.62633391 194.89691523 126.17155457 197.34541321 C122.04952432 201.46016286 117.93600668 205.58328175 113.82714844 209.71118164 C109.07783341 214.48225176 104.31429918 219.23875984 99.5430935 223.98793095 C95.44732125 228.06554371 91.35940547 232.1509098 87.27793807 236.24284106 C84.84018504 238.68682785 82.39981581 241.12803739 79.95234108 243.5622921 C77.22330427 246.27761579 74.5108225 249.0091116 71.79980469 251.74243164 C70.98681915 252.54732025 70.17383362 253.35220886 69.33621216 254.18148804 C68.60017258 254.92880692 67.864133 255.67612579 67.10578918 256.4460907 C66.46296399 257.09042399 65.8201388 257.73475729 65.15783405 258.39861584 C63.39539788 260.75797437 62.92499285 262.46913958 62.67163086 265.38818359 C63.86885357 267.53325747 63.86885357 267.53325747 65.79663086 269.26318359 C66.39733398 269.87935547 66.99803711 270.49552734 67.61694336 271.13037109 C69.59012753 272.59681674 69.59012753 272.59681674 71.92033386 272.31614685 C75.71674176 271.03568639 78.0051503 268.59724916 80.74707031 265.79858398 C81.62598686 264.92536247 81.62598686 264.92536247 82.5226593 264.03450012 C84.45331489 262.11124338 86.36921127 260.17398411 88.28491211 258.23583984 C89.62225102 256.89611666 90.96033015 255.55713202 92.29911804 254.21885681 C95.10018995 251.41465833 97.8944177 248.60387174 100.68359375 245.7878418 C104.26596186 242.17142871 107.86142137 238.56838751 111.46160603 234.96971989 C114.22361457 232.20716868 116.98038887 229.43944502 119.73540306 226.66991997 C121.05994146 225.3390015 122.38570859 224.00930473 123.7127018 222.68083382 C125.56129128 220.82792793 127.40315568 218.96860004 129.24316406 217.10717773 C129.79635315 216.55489502 130.34954224 216.0026123 130.91949463 215.43359375 C133.78140952 212.88291144 133.78140952 212.88291144 134.67163086 209.38818359 C135.33163086 209.38818359 135.99163086 209.38818359 136.67163086 209.38818359 C136.67163086 208.72818359 136.67163086 208.06818359 136.67163086 207.38818359 C137.33163086 207.38818359 137.99163086 207.38818359 138.67163086 207.38818359 C138.67163086 206.72818359 138.67163086 206.06818359 138.67163086 205.38818359 C139.33163086 205.38818359 139.99163086 205.38818359 140.67163086 205.38818359 C140.67163086 204.72818359 140.67163086 204.06818359 140.67163086 203.38818359 C141.33163086 203.38818359 141.99163086 203.38818359 142.67163086 203.38818359 C142.67163086 202.72818359 142.67163086 202.06818359 142.67163086 201.38818359 C143.25066162 201.13077393 143.82969238 200.87336426 144.42626953 200.6081543 C148.55907868 198.3626778 151.65709523 194.85598299 154.98413086 191.57568359 C155.73758789 190.86347656 156.49104492 190.15126953 157.26733398 189.41748047 C157.97438477 188.72074219 158.68143555 188.02400391 159.40991211 187.30615234 C160.06000244 186.67475342 160.71009277 186.04335449 161.37988281 185.39282227 C162.94269858 183.41427074 162.94269858 183.41427074 162.45483398 180.75585938 C161.6116164 178.20675584 160.76413185 176.94210228 158.85913086 175.07568359 C158.35768555 174.56392578 157.85624023 174.05216797 157.33959961 173.52490234 C153.2993736 170.77149305 150.79509401 172.76366781 147.85652161 175.69535828 Z M176.67163086 176.38818359 C177.67163086 179.38818359 177.67163086 179.38818359 177.67163086 179.38818359 Z " fill="#333C45" transform="translate(133.328369140625,107.61181640625)"/>
<path d="M0 0 C0.67456741 0.32506027 1.34913483 0.65012054 2.04414368 0.98503113 C5.61199723 2.2101449 8.52076369 2.2446374 12.29370117 2.23950195 C13.00988617 2.24151611 13.72607117 2.24353027 14.46395874 2.24560547 C16.01353253 2.2491403 17.56312078 2.24839707 19.11269188 2.24382973 C21.57336771 2.23821185 24.03357641 2.24743684 26.49421692 2.2610321 C33.48843439 2.2980468 40.48249384 2.31674281 47.47680664 2.30541992 C51.76222437 2.29953542 56.04698579 2.31799209 60.33226967 2.35130882 C61.95677161 2.35921277 63.58134606 2.35805442 65.20583153 2.34728432 C76.02317475 2.27867941 84.39544585 3.12647466 92.875 10.5 C93.57625 11.325 94.2775 12.15 95 13 C95.70125 13.763125 96.4025 14.52625 97.125 15.3125 C102.46194199 22.96211686 103.154274 31.61779339 103.13371277 40.75311279 C103.13597833 41.50270618 103.13824388 42.25229956 103.14057809 43.0246079 C103.14687511 45.52000195 103.1460915 48.0153411 103.14526367 50.51074219 C103.14825787 52.30671254 103.151661 54.10268225 103.15544128 55.89865112 C103.16425953 60.76659199 103.1666185 65.63451526 103.16725707 70.50246334 C103.16796888 73.54741281 103.17010568 76.59235785 103.17275429 79.63730621 C103.18200093 90.27057681 103.18609008 100.90383489 103.18530273 111.53710938 C103.18470232 121.4316999 103.19524887 131.32623584 103.2110464 141.22081256 C103.22414507 149.72976269 103.22948565 158.23869503 103.22884732 166.74765515 C103.228593 171.8234151 103.23140808 176.89912654 103.24202538 181.9748764 C103.25174541 186.75194915 103.25175886 191.52892739 103.24450874 196.30600357 C103.2434677 198.0526277 103.24579703 199.79925785 103.2518692 201.54587173 C103.29876387 215.97718696 103.32308914 227.80271331 93.21484375 238.97265625 C83.97130311 247.91250767 73.0932529 248.58527763 60.7980957 248.45410156 C59.29895559 248.45297087 57.79981327 248.45361126 56.30067444 248.45587158 C52.26406622 248.45701103 48.22794133 248.43362787 44.19144464 248.40557575 C39.96075968 248.38043251 35.7300615 248.37820998 31.49931335 248.37347412 C23.50264835 248.36108208 15.50620421 248.32831201 7.5096361 248.28807616 C-1.60045065 248.24324047 -10.7105484 248.22134185 -19.82071817 248.20129442 C-38.54727028 248.15957566 -57.27361733 248.08929763 -76 248 C-74.04587269 244.63869177 -72.35357457 242.17473856 -69.3359375 239.7109375 C-64.84406801 235.91803169 -60.74095852 231.81818101 -56.625 227.625 C-55.22367253 226.19824009 -53.8201365 224.77364493 -52.4140625 223.3515625 C-51.8051416 222.73104004 -51.1962207 222.11051758 -50.56884766 221.47119141 C-48.04863834 219.10785786 -46.28235289 218.86311239 -42.9296875 218.75390625 C-42.115 218.72103516 -41.3003125 218.68816406 -40.4609375 218.65429688 C-38.76052289 218.59393472 -37.05999926 218.53655665 -35.359375 218.48242188 C-25.29614432 218.06443502 -15.15963366 215.99375711 -7.69140625 208.765625 C0.30158401 199.32069706 1.47148926 191.03680355 1.28125 178.83325195 C1.24989894 176.80596511 1.24024545 174.7794594 1.234375 172.75195312 C1.22508864 165.7242297 1.22508864 165.7242297 0.42480469 158.76049805 C0 156 0 156 1 153 C0.34 153 -0.32 153 -1 153 C-1.23074219 152.24074219 -1.46148437 151.48148438 -1.69921875 150.69921875 C-2.02535156 149.70535156 -2.35148437 148.71148437 -2.6875 147.6875 C-3.00074219 146.70136719 -3.31398438 145.71523438 -3.63671875 144.69921875 C-5.27141399 141.46261586 -6.84772658 140.66201595 -10 139 C-13.09192586 133.69955568 -12.39991669 127.77465634 -11 122 C-13.97 121.505 -13.97 121.505 -17 121 C-16.34 120.67 -15.68 120.34 -15 120 C-14.30062468 118.68352881 -13.63270867 117.34977849 -13 116 C-12.67 115.67 -12.34 115.34 -12 115 C-12.06485257 112.17301765 -12.19176086 109.38209223 -12.375 106.5625 C-12.41882813 105.77294922 -12.46265625 104.98339844 -12.5078125 104.16992188 C-12.67772007 99.94989189 -12.67772007 99.94989189 -14 96 C-14.203125 94.125 -14.203125 94.125 -14.25 92 C-14.27578125 91.29875 -14.3015625 90.5975 -14.328125 89.875 C-14.21984375 89.25625 -14.1115625 88.6375 -14 88 C-11 86 -11 86 -8.3125 86.375 C-7.549375 86.58125 -6.78625 86.7875 -6 87 C-6 87.66 -6 88.32 -6 89 C-5.45085937 89.24492187 -4.90171875 89.48984375 -4.3359375 89.7421875 C-0.51310201 91.80063738 2.75108619 94.63114147 6.1484375 97.3203125 C9.51278061 99.30204885 11.15712629 99.55184871 15 99 C17.82806113 97.73020217 17.82806113 97.73020217 20.5 96 C24.58630964 93.46366988 27.16804346 92.56929635 32 93 C34.375 94 34.375 94 36 95 C36.33 94.34 36.66 93.68 37 93 C37.66 93 38.32 93 39 93 C39.08150744 90.93816367 39.1394194 88.87538651 39.1875 86.8125 C39.22230469 85.66394531 39.25710938 84.51539063 39.29296875 83.33203125 C38.86040926 78.41238799 37.09256547 75.95932578 33.4375 72.75 C29.69722052 70.06467114 27.6320815 69.55460755 23 70 C17.70563897 72.7675069 13.70863535 77.01523868 9.46484375 81.171875 C6.60413275 83.29360677 5.44766526 83.16791626 2 83 C1.9845388 81.59511574 1.9845388 81.59511574 1.96876526 80.16184998 C1.87085331 71.31956617 1.76810314 62.47734994 1.66066074 53.63517666 C1.60558279 49.08973454 1.55218772 44.54428583 1.50268555 39.9987793 C1.45481793 35.60912299 1.40246842 31.21954058 1.34705925 26.82997322 C1.32673675 25.15833447 1.30800765 23.48667554 1.29092598 21.81500053 C1.2666567 19.46700658 1.23663515 17.1191494 1.20532227 14.77124023 C1.1995668 14.08575104 1.19381134 13.40026184 1.18788147 12.69400024 C1.12264576 8.36820814 0.68847288 4.2598545 0 0 Z M44 56 C44.66 56.66 45.32 57.32 46 58 C46 57.34 46 56.68 46 56 C45.34 56 44.68 56 44 56 Z M40 131 C39.67 132.32 39.34 133.64 39 135 C40.75244247 136.6483633 40.75244247 136.6483633 43 138 C45.20800528 137.78282648 45.20800528 137.78282648 47 137 C45.38405168 134.95880212 43.7143618 132.95927063 42 131 C41.34 131 40.68 131 40 131 Z " fill="#3D98E5" transform="translate(310,131)"/>
<path d="M0 0 C27.06 0 54.12 0 82 0 C82 11.22 82 22.44 82 34 C54.94 34 27.88 34 0 34 C0 22.78 0 11.56 0 0 Z " fill="#3A424B" transform="translate(184,171)"/>
<path d="M0 0 C27.06 0 54.12 0 82 0 C82 10.89 82 21.78 82 33 C77.61973986 33.87605203 73.77507128 34.10307201 69.36401367 34.02172852 C68.61225861 34.01212097 67.86050354 34.00251343 67.08596802 33.99261475 C64.61320217 33.95976188 62.14062065 33.91937787 59.66796875 33.87890625 C57.94876241 33.85459171 56.22954935 33.83074883 54.5103302 33.80735779 C49.99427602 33.74464956 45.47834161 33.6755456 40.96240234 33.60510254 C36.35064122 33.53429906 31.73879547 33.46955408 27.12695312 33.40429688 C18.08453979 33.27545552 9.04225832 33.13929633 0 33 C0 22.11 0 11.22 0 0 Z " fill="#3A424B" transform="translate(184,215)"/>
<path d="M0 0 C0.763125 0.20625 1.52625 0.4125 2.3125 0.625 C2.3125 1.285 2.3125 1.945 2.3125 2.625 C3.13621094 2.99238281 3.13621094 2.99238281 3.9765625 3.3671875 C7.79939799 5.42563738 11.06358619 8.25614147 14.4609375 10.9453125 C17.82528061 12.92704885 19.46962629 13.17684871 23.3125 12.625 C26.14056113 11.35520217 26.14056113 11.35520217 28.8125 9.625 C32.8901326 7.09405563 35.48647748 6.1463862 40.3125 6.625 C43.1875 8.125 43.1875 8.125 45.3125 9.625 C44.86812612 13.73545835 43.74093775 17.23769148 42.25 21.0625 C40.6349347 25.43861444 39.46570367 28.92057593 40.3125 33.625 C42.54180256 36.43768079 42.54180256 36.43768079 45.3125 38.625 C47.125 40.3125 47.125 40.3125 48.3125 41.625 C48.3125 42.285 48.3125 42.945 48.3125 43.625 C49.3025 44.12 49.3025 44.12 50.3125 44.625 C49.3225 45.12 49.3225 45.12 48.3125 45.625 C48.8075 47.605 48.8075 47.605 49.3125 49.625 C52.89577753 50.62717064 52.89577753 50.62717064 56.3125 49.625 C56 52 56 52 55.3125 54.625 C51.92146226 56.88569183 50.8954006 56.82929866 46.9453125 56.72265625 C45.89472656 56.72072266 44.84414063 56.71878906 43.76171875 56.71679688 C41.55297376 56.69733085 39.34429425 56.65062856 37.13671875 56.57617188 C33.9737335 56.59746492 31.34569684 56.71731727 28.3125 57.625 C25.74599592 60.29436287 24.57717937 63.18155558 23.3125 66.625 C22.77625 67.7696875 22.24 68.914375 21.6875 70.09375 C20.76298898 72.13187657 19.8464412 74.17363229 18.9375 76.21875 C17.3125 78.625 17.3125 78.625 14.625 79.46875 C13.861875 79.5203125 13.09875 79.571875 12.3125 79.625 C9.47968772 76.42269046 8.67395048 73.87204318 8.3125 69.625 C8.8075 68.14 8.8075 68.14 9.3125 66.625 C8.6525 66.625 7.9925 66.625 7.3125 66.625 C7.08175781 65.86574219 6.85101563 65.10648437 6.61328125 64.32421875 C6.28714844 63.33035156 5.96101563 62.33648437 5.625 61.3125 C5.15513672 59.83330078 5.15513672 59.83330078 4.67578125 58.32421875 C3.04108601 55.08761586 1.46477342 54.28701595 -1.6875 52.625 C-4.77942586 47.32455568 -4.08741669 41.39965634 -2.6875 35.625 C-4.6675 35.295 -6.6475 34.965 -8.6875 34.625 C-7.6975 34.13 -7.6975 34.13 -6.6875 33.625 C-5.98812468 32.30852881 -5.32020867 30.97477849 -4.6875 29.625 C-4.3575 29.295 -4.0275 28.965 -3.6875 28.625 C-3.75235257 25.79801765 -3.87926086 23.00709223 -4.0625 20.1875 C-4.10632813 19.39794922 -4.15015625 18.60839844 -4.1953125 17.79492188 C-4.36522007 13.57489189 -4.36522007 13.57489189 -5.6875 9.625 C-5.890625 7.75 -5.890625 7.75 -5.9375 5.625 C-5.96328125 4.92375 -5.9890625 4.2225 -6.015625 3.5 C-5.90734375 2.88125 -5.7990625 2.2625 -5.6875 1.625 C-2.6875 -0.375 -2.6875 -0.375 0 0 Z " fill="#F8FAFB" transform="translate(301.6875,217.375)"/>
<path d="M0 0 C13.86 0 27.72 0 42 0 C42 11.22 42 22.44 42 34 C28.14 34 14.28 34 0 34 C0 22.78 0 11.56 0 0 Z " fill="#303841" transform="translate(132,171)"/>
<path d="M0 0 C13.86 0 27.72 0 42 0 C42 10.89 42 21.78 42 33 C38.2759209 34.2413597 34.81555854 34.14310687 30.9375 34.1328125 C30.14980225 34.13376923 29.36210449 34.13472595 28.55053711 34.13571167 C26.88622966 34.13639174 25.22191953 34.13454953 23.55761719 34.13037109 C21.00970504 34.12502038 18.46196917 34.13032192 15.9140625 34.13671875 C14.29687461 34.13605794 12.67968683 34.13477671 11.0625 34.1328125 C10.29993896 34.13483673 9.53737793 34.13686096 8.75170898 34.13894653 C5.56853084 34.12483094 3.04227683 34.01409228 0 33 C0 22.11 0 11.22 0 0 Z " fill="#313A42" transform="translate(132,215)"/>
<path d="M0 0 C13.86 0 27.72 0 42 0 C42 10.23 42 20.46 42 31 C28.14 31 14.28 31 0 31 C0 20.77 0 10.54 0 0 Z " fill="#313A43" transform="translate(132,258)"/>
<path d="M0 0 C0.99 0 1.98 0 3 0 C3.31453125 0.88042969 3.6290625 1.76085937 3.953125 2.66796875 C4.38109375 3.82941406 4.8090625 4.99085938 5.25 6.1875 C5.66765625 7.33605469 6.0853125 8.48460937 6.515625 9.66796875 C8.67070819 14.50556338 11.0499258 17.97115447 15.9375 20.1875 C16.62714844 20.50589844 17.31679688 20.82429688 18.02734375 21.15234375 C20.33653729 22.14461107 22.64641907 23.11740715 25 24 C25 25.65 25 27.3 25 29 C24.19175781 29.29132813 23.38351562 29.58265625 22.55078125 29.8828125 C14.6828073 32.90092555 10.14003404 35.33137825 6.6015625 43.05078125 C5.34095159 46.01426159 4.14455008 48.99007681 3 52 C1.68 52 0.36 52 -1 52 C-1.81332743 49.89615302 -2.62563417 47.79191143 -3.4375 45.6875 C-3.88996094 44.51574219 -4.34242188 43.34398437 -4.80859375 42.13671875 C-5.57984755 40.10617185 -6.31312642 38.06062074 -7 36 C-7.66 36 -8.32 36 -9 36 C-9 35.34 -9 34.68 -9 34 C-9.59167969 33.81824219 -10.18335938 33.63648438 -10.79296875 33.44921875 C-15.212508 32.04332943 -19.12540125 30.62472819 -23 28 C-22.8671875 26.19921875 -22.8671875 26.19921875 -22 24 C-19.3828125 22.33203125 -19.3828125 22.33203125 -16.125 20.8125 C-15.05507813 20.30332031 -13.98515625 19.79414063 -12.8828125 19.26953125 C-10 18 -10 18 -7 17 C-6.24320565 15.03233469 -5.6025301 13.02024799 -5 11 C-4.32888661 9.22289174 -3.64038004 7.45228514 -2.9375 5.6875 C-2.59589844 4.82511719 -2.25429688 3.96273437 -1.90234375 3.07421875 C-1 1 -1 1 0 0 Z M-15 29 C-14.34 29.66 -13.68 30.32 -13 31 C-13 30.34 -13 29.68 -13 29 C-13.66 29 -14.32 29 -15 29 Z " fill="#F4FBFC" transform="translate(369,158)"/>
<path d="M0 0 C1.32 0 2.64 0 4 0 C4.23074219 0.61488281 4.46148437 1.22976562 4.69921875 1.86328125 C6.72288048 7.02481534 6.72288048 7.02481534 10.5 10.9375 C11.325 11.288125 12.15 11.63875 13 12 C13.763125 12.391875 14.52625 12.78375 15.3125 13.1875 C15.869375 13.455625 16.42625 13.72375 17 14 C16.4375 15.875 16.4375 15.875 15 18 C13.2675 18.4640625 13.2675 18.4640625 11.5 18.9375 C7.88557052 19.59170856 7.88557052 19.59170856 6.75 22.25 C6.5025 23.1575 6.255 24.065 6 25 C5.01517978 27.00751815 4.01847486 29.00934459 3 31 C2.01 30.67 1.02 30.34 0 30 C-0.73828125 28.29296875 -0.73828125 28.29296875 -1.3125 26.1875 C-3.12305228 20.8606646 -6.55627718 19.2861699 -11.375 16.75 C-11.91125 16.5025 -12.4475 16.255 -13 16 C-13 15.34 -13 14.68 -13 14 C-12.20335937 13.67128906 -12.20335937 13.67128906 -11.390625 13.3359375 C-6.34250088 11.06980879 -3.63884818 9.06658851 -1 4 C-0.23060319 1.77397385 -0.23060319 1.77397385 0 0 Z " fill="#EFF9FD" transform="translate(376,229)"/>
<path d="M0 0 C0.66 0.33 1.32 0.66 2 1 C1.67 1.66 1.34 2.32 1 3 C1.75060133 2.99815641 2.50120266 2.99631283 3.27454948 2.99441338 C21.51785061 2.95029142 39.76114112 2.91717128 58.00448418 2.89637566 C66.82673938 2.88605238 75.64895902 2.87197203 84.47119141 2.84912109 C92.15846502 2.82921932 99.84571289 2.81629122 107.53301156 2.81182301 C111.60535183 2.80921016 115.67761843 2.80304717 119.74993515 2.78853989 C123.57970895 2.77500665 127.40937845 2.77076867 131.23917389 2.77378464 C132.64771465 2.77323256 134.05625875 2.76922979 135.4647789 2.76158905 C137.38208265 2.75169494 139.29944186 2.75520954 141.21676636 2.75949097 C142.82898229 2.75672559 142.82898229 2.75672559 144.47376823 2.75390434 C147 3 147 3 149 5 C98.84 5 48.68 5 -3 5 C-2.01 3.35 -1.02 1.7 0 0 Z " fill="#8BBDE8" transform="translate(237,374)"/>
<path d="M0 0 C13.86 0 27.72 0 42 0 C42 10.23 42 20.46 42 31 C28.14 31 14.28 31 0 31 C0 20.77 0 10.54 0 0 Z M2 2 C2 10.91 2 19.82 2 29 C14.54 29 27.08 29 40 29 C40 20.09 40 11.18 40 2 C27.46 2 14.92 2 2 2 Z " fill="#4B5056" transform="translate(132,258)"/>
<path d="M0 0 C-2 2 -2 2 -5.20169067 2.20254517 C-6.59699155 2.190552 -7.9922205 2.16720618 -9.38720703 2.13525391 C-10.14827759 2.12579239 -10.90934814 2.11633087 -11.69348145 2.10658264 C-14.21516612 2.0728394 -16.73636569 2.02474273 -19.2578125 1.9765625 C-21.00372033 1.9504021 -22.74964175 1.92513456 -24.49557495 1.90072632 C-29.09561326 1.83400932 -33.69536657 1.755131 -38.29516602 1.67376709 C-42.98703046 1.59291126 -47.67906234 1.52349121 -52.37109375 1.453125 C-61.58093902 1.31331119 -70.79047635 1.15960062 -80 1 C-80 10.24 -80 19.48 -80 29 C-60.53 29 -41.06 29 -21 29 C-23 31 -23 31 -25.4803772 31.24050903 C-26.52406464 31.23606781 -27.56775208 31.23162659 -28.64306641 31.22705078 C-29.82413971 31.22689972 -31.00521301 31.22674866 -32.22207642 31.22659302 C-33.50230682 31.21627045 -34.78253723 31.20594788 -36.1015625 31.1953125 C-38.06166763 31.19106766 -38.06166763 31.19106766 -40.06137085 31.18673706 C-43.53682081 31.17909776 -47.01210383 31.1594469 -50.48748779 31.1373291 C-54.0333018 31.11687696 -57.57914357 31.1076272 -61.125 31.09765625 C-68.08348082 31.07726211 -75.04150309 31.03811715 -82 31 C-82 20.77 -82 10.54 -82 0 C-71.60390544 -0.15307772 -61.20777403 -0.30184763 -50.81151009 -0.4429636 C-45.98448522 -0.50865803 -41.15750272 -0.5762651 -36.33056641 -0.64819336 C-31.67520328 -0.71749539 -27.01979596 -0.78183853 -22.36431503 -0.84269524 C-20.58522921 -0.86683253 -18.806167 -0.89277835 -17.02713394 -0.92053413 C-14.54172715 -0.95900618 -12.05631527 -0.99113619 -9.57080078 -1.02172852 C-8.45949799 -1.04114754 -8.45949799 -1.04114754 -7.32574463 -1.06095886 C-2.22810432 -1.11405216 -2.22810432 -1.11405216 0 0 Z " fill="#6D7379" transform="translate(266,258)"/>
<path d="M0 0 C3.06108749 3.27924963 3.92136748 6.68546993 5 11 C1.47652211 11.9395941 -1.31229831 12 -5 12 C-8.0745356 12.7763932 -8.0745356 12.7763932 -10 15 C-11.65 13.02 -13.3 11.04 -15 9 C-14.34 7.68 -13.68 6.36 -13 5 C-13.66 4.67 -14.32 4.34 -15 4 C-14.01 2.35 -13.02 0.7 -12 -1 C-13.98 -1 -15.96 -1 -18 -1 C-18 -1.33 -18 -1.66 -18 -2 C-11.67002632 -3.5473269 -5.97436701 -2.63519054 0 0 Z " fill="#343C45" transform="translate(304,271)"/>
<path d="M0 0 C0.33 0 0.66 0 1 0 C1.79067567 8.08607026 2.141068 16.07204344 2.11352539 24.19433594 C2.11367142 25.34700958 2.11381744 26.49968323 2.1139679 27.68728638 C2.11327773 31.45300252 2.10552774 35.21866763 2.09765625 38.984375 C2.09578888 41.61281304 2.09436648 44.24125143 2.09336853 46.86968994 C2.09027751 53.05292681 2.08209458 59.2361457 2.07201904 65.4193747 C2.06078815 72.46667479 2.05532998 79.5139758 2.05032361 86.56128263 C2.03990977 101.0408643 2.0223541 115.5204319 2 130 C-0.857675 127.142325 -0.30762869 124.31048803 -0.31884766 120.48144531 C-0.32889328 119.70338531 -0.3389389 118.92532532 -0.34928894 118.12368774 C-0.38038567 115.52517417 -0.39727867 112.92676751 -0.4140625 110.328125 C-0.43281912 108.49386773 -0.45239569 106.65961868 -0.4727478 104.82537842 C-0.52432897 99.95407288 -0.56370079 95.08273737 -0.60089111 90.21130371 C-0.6322599 86.35826383 -0.67208419 82.50533641 -0.71245193 78.6523819 C-0.84037554 66.4350951 -0.93261942 54.21776483 -1 42 C-1.00784767 40.6058638 -1.00784767 40.6058638 -1.01585388 39.18356323 C-1.04526013 33.76840717 -1.06747566 28.35329537 -1.07957077 22.9380722 C-1.08377681 21.27580028 -1.08956825 19.61353153 -1.09703445 17.95127106 C-1.10662052 15.67159284 -1.1096862 13.39200067 -1.11083984 11.11230469 C-1.11368988 9.82926453 -1.11653992 8.54622437 -1.11947632 7.2243042 C-1.0221854 4.59871691 -0.78805922 2.48606663 0 0 Z " fill="#8B8F96" transform="translate(120,165)"/>
<path d="M0 0 C0.67762894 0.32407837 1.35525787 0.64815674 2.05342102 0.98205566 C5.56507133 2.19521322 8.42985487 2.26564236 12.14526367 2.28710938 C12.8450383 2.29394241 13.54481293 2.30077545 14.26579285 2.30781555 C15.77770489 2.32135546 17.28966209 2.33043955 18.80162621 2.33552551 C21.19288873 2.34383661 23.58377342 2.36435842 25.97492981 2.38806152 C31.9090884 2.44437829 37.84333826 2.47974764 43.77764893 2.51568604 C48.80115589 2.54688794 53.82447666 2.58602766 58.84783363 2.63594055 C61.20662005 2.65604672 63.5652637 2.66433371 65.92411804 2.67224121 C67.36372404 2.68520768 68.8033252 2.69872712 70.24291992 2.71289062 C71.50246994 2.72018188 72.76201996 2.72747314 74.05973816 2.73498535 C77 3 77 3 79 5 C53.92 4.67 28.84 4.34 3 4 C3 29.74 3 55.48 3 82 C3.99 82 4.98 82 6 82 C6 81.34 6 80.68 6 80 C6.99 80.33 7.98 80.66 9 81 C7 83 7 83 4.375 83.125 C3.59125 83.08375 2.8075 83.0425 2 83 C1.98969254 82.06341049 1.97938507 81.12682098 1.96876526 80.16184998 C1.87085331 71.31956617 1.76810314 62.47734994 1.66066074 53.63517666 C1.60558279 49.08973454 1.55218772 44.54428583 1.50268555 39.9987793 C1.45481793 35.60912299 1.40246842 31.21954058 1.34705925 26.82997322 C1.32673675 25.15833447 1.30800765 23.48667554 1.29092598 21.81500053 C1.2666567 19.46700658 1.23663515 17.1191494 1.20532227 14.77124023 C1.1995668 14.08575104 1.19381134 13.40026184 1.18788147 12.69400024 C1.12264576 8.36820814 0.68847288 4.2598545 0 0 Z " fill="#4A8EC5" transform="translate(310,131)"/>
<path d="M0 0 C13.86 0 27.72 0 42 0 C42 10.89 42 21.78 42 33 C38.27997648 34.24000784 34.81262536 34.16231369 30.9375 34.16796875 C30.14980225 34.17129715 29.36210449 34.17462555 28.55053711 34.17805481 C26.8862364 34.18311407 25.22192557 34.18546344 23.55761719 34.18530273 C21.00959639 34.18749176 18.46200685 34.20566464 15.9140625 34.22460938 C14.29687648 34.22754298 12.67968841 34.229528 11.0625 34.23046875 C10.29993896 34.23765427 9.53737793 34.24483978 8.75170898 34.25224304 C4.95818889 34.23582402 3.23535427 34.15690285 0 32 C13.2 32 26.4 32 40 32 C39.505 29.03 39.505 29.03 39 26 C38.98526222 23.98142103 39.02754645 21.96177653 39.12109375 19.9453125 C39.16419678 18.94516113 39.2072998 17.94500977 39.25170898 16.91455078 C39.34367554 15.03872314 39.34367554 15.03872314 39.4375 13.125 C39.623125 9.12375 39.80875 5.1225 40 1 C26.8 1 13.6 1 0 1 C0 0.67 0 0.34 0 0 Z " fill="#6E737A" transform="translate(132,215)"/>
<path d="M0 0 C13.53 0 27.06 0 41 0 C41 11.22 41 22.44 41 34 C27.14 34 13.28 34 -1 34 C-1 33.67 -1 33.34 -1 33 C11.87 32.67 24.74 32.34 38 32 C37.96040374 22.50107036 37.96040374 22.50107036 37.90991211 13.00219727 C37.90741455 11.82713623 37.90491699 10.6520752 37.90234375 9.44140625 C37.89710693 8.23170166 37.89187012 7.02199707 37.88647461 5.77563477 C38 3 38 3 39 2 C19.695 1.505 19.695 1.505 0 1 C0 0.67 0 0.34 0 0 Z " fill="#80858A" transform="translate(133,171)"/>
<path d="M0 0 C0.33 0 0.66 0 1 0 C1 25.08 1 50.16 1 76 C6.31097657 74.22967448 8.06201744 73.45689271 11.875 69.875 C13.04675781 68.78832031 13.04675781 68.78832031 14.2421875 67.6796875 C14.82226562 67.12539062 15.40234375 66.57109375 16 66 C16 69 16 69 15 71 C14.34 71 13.68 71 13 71 C13 71.99 13 72.98 13 74 C11.40084119 74.69906942 9.79544955 75.38389468 8.1875 76.0625 C7.29417969 76.44535156 6.40085937 76.82820313 5.48046875 77.22265625 C3 78 3 78 0 77 C0 51.59 0 26.18 0 0 Z " fill="#223E56" transform="translate(311,138)"/>
<path d="M0 0 C0.66 0.33 1.32 0.66 2 1 C1.67 1.66 1.34 2.32 1 3 C1.99 3.33 2.98 3.66 4 4 C3.67 4.66 3.34 5.32 3 6 C1.7934375 5.9690625 1.7934375 5.9690625 0.5625 5.9375 C-1.93354885 5.70366379 -1.93354885 5.70366379 -3 7 C-7.76649888 7.66453695 -12.45205067 8.05263816 -17.26171875 8.17578125 C-18.59879883 8.21155273 -18.59879883 8.21155273 -19.96289062 8.24804688 C-21.79077133 8.29128706 -23.61897657 8.32238829 -25.44726562 8.34179688 C-31.23010927 8.5223795 -34.57027022 9.18570925 -39 13 C-39.33 13.66 -39.66 14.32 -40 15 C-40.99 14.67 -41.98 14.34 -43 14 C-40.35617151 10.34445375 -37.45829971 7.46203093 -32.88525391 6.60253906 C-28.80644016 6.22370187 -24.74967629 6.18171486 -20.65625 6.16796875 C-14.5447816 6.08896838 -8.99547097 4.84846012 -3.625 1.8125 C-1.6640625 0.70703125 -1.6640625 0.70703125 0 0 Z " fill="#4B94D2" transform="translate(298,343)"/>
<path d="M0 0 C0.33 0 0.66 0 1 0 C1.83080993 8.50903942 2.21069797 16.95180955 2.25 25.5 C2.270625 26.65242188 2.29125 27.80484375 2.3125 28.9921875 C2.31765625 30.09820312 2.3228125 31.20421875 2.328125 32.34375 C2.3374707 33.33568359 2.34681641 34.32761719 2.35644531 35.34960938 C1.94807816 38.38607087 1.02382353 39.74774491 -1 42 C-1.0247366 36.66146176 -1.0428774 31.32295697 -1.05493164 25.984375 C-1.05995741 24.16861388 -1.06677903 22.3528568 -1.07543945 20.53710938 C-1.08758189 17.9257711 -1.09324591 15.31448638 -1.09765625 12.703125 C-1.10281754 11.89256653 -1.10797882 11.08200806 -1.11329651 10.24688721 C-1.11365296 6.6579583 -0.97045947 3.45259214 0 0 Z " fill="#60686E" transform="translate(120,165)"/>
<path d="M0 0 C4.83497426 2.70758559 9.20775976 5.62327929 11 11 C11.09357692 12.85227252 11.12993909 14.7078718 11.125 16.5625 C11.12886719 18.01849609 11.12886719 18.01849609 11.1328125 19.50390625 C11 22 11 22 10 24 C9.34 24 8.68 24 8 24 C8.66 20.37 9.32 16.74 10 13 C9.34 13 8.68 13 8 13 C6.5393715 10.35261084 6 9.10551666 6 6 C5.34 6 4.68 6 4 6 C3.67 5.34 3.34 4.68 3 4 C-1.66534956 2.89149752 -6.37122006 2.65616066 -11 4 C-7.43363078 0.27152309 -5.24493402 -0.50432058 0 0 Z " fill="#25445F" transform="translate(339,200)"/>
<path d="M0 0 C0.886875 0.020625 1.77375 0.04125 2.6875 0.0625 C4.0075 0.0625 5.3275 0.0625 6.6875 0.0625 C7.0175 0.7225 7.3475 1.3825 7.6875 2.0625 C6.0375 4.0425 4.3875 6.0225 2.6875 8.0625 C1.0375 7.7325 -0.6125 7.4025 -2.3125 7.0625 C-2.3125 6.4025 -2.3125 5.7425 -2.3125 5.0625 C-3.3025 5.0625 -4.2925 5.0625 -5.3125 5.0625 C-2.90083922 0.07840106 -2.90083922 0.07840106 0 0 Z " fill="#3C434C" transform="translate(271.3125,251.9375)"/>
<path d="M0 0 C2.475 0.99 2.475 0.99 5 2 C5 2.66 5 3.32 5 4 C5.66 4 6.32 4 7 4 C7.84324672 5.578076 8.67423918 7.1627042 9.5 8.75 C9.9640625 9.63171875 10.428125 10.5134375 10.90625 11.421875 C12 14 12 14 12 18 C11.01 18 10.02 18 9 18 C9 17.01 9 16.02 9 15 C8.01 14.67 7.02 14.34 6 14 C6 11.36 6 8.72 6 6 C4.35 5.67 2.7 5.34 1 5 C0.67 3.35 0.34 1.7 0 0 Z " fill="#4796DF" transform="translate(355,190)"/>
<path d="M0 0 C0.33 0 0.66 0 1 0 C0.67174768 5.29731323 0.44565935 8.80528427 -3 13 C-3.66685938 15.45672892 -3.66685938 15.45672892 -3 18 C-0.77122275 20.64573501 -0.77122275 20.64573501 2 23 C3.36984198 24.29579647 4.7151049 25.61992749 6 27 C6 27.66 6 28.32 6 29 C4 29 4 29 1.625 26.8125 C0.75875 25.884375 -0.1075 24.95625 -1 24 C-1.763125 23.21625 -2.52625 22.4325 -3.3125 21.625 C-5.62409608 18.02918388 -5.5481275 16.24798815 -5 12 C-1.93320236 1.93320236 -1.93320236 1.93320236 0 0 Z " fill="#5198D4" transform="translate(346,232)"/>
<path d="M0 0 C0.66 0.33 1.32 0.66 2 1 C2 2.65 2 4.3 2 6 C-1 7 -1 7 -4 7 C-6.41249928 7.88262169 -8.70301176 8.85150588 -11 10 C-9.64231796 5.11234467 -7.32965579 3.47408902 -3 1 C-2.01 0.67 -1.02 0.34 0 0 Z " fill="#4B5057" transform="translate(109,110)"/>
<path d="M0 0 C-0.33 0.66 -0.66 1.32 -1 2 C-9.25 2 -17.5 2 -26 2 C-27.65 4.97 -29.3 7.94 -31 11 C-31.66 10.67 -32.32 10.34 -33 10 C-32.18957164 8.51969728 -31.37659652 7.04078858 -30.5625 5.5625 C-29.88380859 4.32693359 -29.88380859 4.32693359 -29.19140625 3.06640625 C-28 1 -28 1 -27 0 C-23.05439945 -0.38462601 -19.08555711 -0.47039731 -15.125 -0.625 C-14.00996094 -0.6765625 -12.89492188 -0.728125 -11.74609375 -0.78125 C-10.67746094 -0.82507813 -9.60882813 -0.86890625 -8.5078125 -0.9140625 C-7.52441895 -0.9548291 -6.54102539 -0.9955957 -5.52783203 -1.03759766 C-3 -1 -3 -1 0 0 Z " fill="#4B95D4" transform="translate(357,274)"/>
<path d="M0 0 C1.32 0 2.64 0 4 0 C2.6415798 3.04332765 1.11536976 5.12309151 -1.2578125 7.453125 C-1.88300781 8.071875 -2.50820312 8.690625 -3.15234375 9.328125 C-3.80332031 9.96234375 -4.45429688 10.5965625 -5.125 11.25 C-5.78371094 11.8996875 -6.44242188 12.549375 -7.12109375 13.21875 C-8.74296643 14.81711727 -10.3693281 16.41061897 -12 18 C-12.33 17.01 -12.66 16.02 -13 15 C-12.34 15 -11.68 15 -11 15 C-10.67 13.68 -10.34 12.36 -10 11 C-9.01 11 -8.02 11 -7 11 C-7 10.34 -7 9.68 -7 9 C-6.34 9 -5.68 9 -5 9 C-4.34 7.68 -3.68 6.36 -3 5 C-2.34 5 -1.68 5 -1 5 C-0.67 3.35 -0.34 1.7 0 0 Z " fill="#585D63" transform="translate(244,316)"/>
<path d="M0 0 C2.28085043 0.91234017 3.70988267 1.58094164 5.125 3.625 C6.33160835 6.9000798 6.18941155 9.77177622 6.125 13.25 C6.10695313 14.51328125 6.08890625 15.7765625 6.0703125 17.078125 C6.04710937 18.04234375 6.02390625 19.0065625 6 20 C5.67 20 5.34 20 5 20 C4.87044922 18.80503906 4.87044922 18.80503906 4.73828125 17.5859375 C3.84332634 10.83682802 2.99245528 6.72969448 -2 2 C-1.34 1.34 -0.68 0.68 0 0 Z " fill="#418CCE" transform="translate(345,200)"/>
<path d="M0 0 C0.66 0 1.32 0 2 0 C0.96615468 8.01230124 -2.12306899 13.39838468 -8 19 C-10.76171875 20.28515625 -10.76171875 20.28515625 -13 21 C-12.67 20.34 -12.34 19.68 -12 19 C-11.34 19 -10.68 19 -10 19 C-10.33 17.68 -10.66 16.36 -11 15 C-9.35 15 -7.7 15 -6 15 C-5.34 13.02 -4.68 11.04 -4 9 C-3.34 9 -2.68 9 -2 9 C-1.34 6.03 -0.68 3.06 0 0 Z " fill="#23415B" transform="translate(309,323)"/>
<path d="M0 0 C0 0.66 0 1.32 0 2 C-1.98 2.66 -3.96 3.32 -6 4 C-6 4.99 -6 5.98 -6 7 C-4.68 7 -3.36 7 -2 7 C-1.34 8.32 -0.68 9.64 0 11 C-1.48484412 10.60404157 -2.9628831 10.18249294 -4.4375 9.75 C-5.67306641 9.40195313 -5.67306641 9.40195313 -6.93359375 9.046875 C-9 8 -9 8 -9.78515625 5.890625 C-9.85605469 5.26671875 -9.92695313 4.6428125 -10 4 C-8.71086513 3.32845067 -7.41859796 2.66291141 -6.125 2 C-5.40570313 1.62875 -4.68640625 1.2575 -3.9453125 0.875 C-2 0 -2 0 0 0 Z " fill="#CCEFFB" transform="translate(356,179)"/>
<path d="M0 0 C3.3 0.33 6.6 0.66 10 1 C9.4140625 7.93359375 9.4140625 7.93359375 9 10 C8.01 10.495 8.01 10.495 7 11 C4.875 10.0625 4.875 10.0625 3 9 C3.99 7.02 4.98 5.04 6 3 C4.02 2.34 2.04 1.68 0 1 C0 0.67 0 0.34 0 0 Z " fill="#2C3239" transform="translate(282,269)"/>
<path d="M0 0 C2.64 0 5.28 0 8 0 C7.34 1.65 6.68 3.3 6 5 C5.34 3.68 4.68 2.36 4 1 C0.83409094 1.6659576 0.83409094 1.6659576 -0.16796875 4.28515625 C-0.50441406 5.20167969 -0.84085937 6.11820313 -1.1875 7.0625 C-1.53167969 7.98160156 -1.87585938 8.90070313 -2.23046875 9.84765625 C-2.48441406 10.55792969 -2.73835938 11.26820313 -3 12 C-3.66 10.68 -4.32 9.36 -5 8 C-4.34 7.67 -3.68 7.34 -3 7 C-3 5.68 -3 4.36 -3 3 C-2.34 3 -1.68 3 -1 3 C-0.67 2.01 -0.34 1.02 0 0 Z " fill="#4996D7" transform="translate(368,157)"/>
<path d="M0 0 C5.80027146 2.20962722 8.88038155 5.78957344 12 11 C12 11.66 12 12.32 12 13 C11.34 13 10.68 13 10 13 C10 12.34 10 11.68 10 11 C8.68 10.34 7.36 9.68 6 9 C6 8.34 6 7.68 6 7 C5.21625 6.690625 4.4325 6.38125 3.625 6.0625 C1 5 1 5 -1 4 C-0.67 2.68 -0.34 1.36 0 0 Z " fill="#65A9DF" transform="translate(397,138)"/>
<path d="M0 0 C7.26 0 14.52 0 22 0 C22 0.33 22 0.66 22 1 C20.70964844 1.01417969 19.41929687 1.02835937 18.08984375 1.04296875 C16.37236119 1.0898945 14.65491438 1.13814174 12.9375 1.1875 C11.66616211 1.19620117 11.66616211 1.19620117 10.36914062 1.20507812 C4.03158708 1.42530199 0.83324234 2.88813711 -4 7 C-3.67 5.35 -3.34 3.7 -3 2 C-2.01 2 -1.02 2 0 2 C0 1.34 0 0.68 0 0 Z " fill="#2B5070" transform="translate(260,349)"/>
<path d="M0 0 C0.66 0.33 1.32 0.66 2 1 C1.67 1.66 1.34 2.32 1 3 C1.99 3.33 2.98 3.66 4 4 C3.67 4.66 3.34 5.32 3 6 C2.2575 5.979375 1.515 5.95875 0.75 5.9375 C-1.70462279 5.99328688 -3.66109261 6.3069904 -6 7 C-5.8125 5.1875 -5.8125 5.1875 -5 3 C-2.5625 1.1875 -2.5625 1.1875 0 0 Z " fill="#4193D8" transform="translate(298,343)"/>
<path d="M0 0 C0.33 0.66 0.66 1.32 1 2 C1.66 2.33 2.32 2.66 3 3 C-2.53846154 8.84615385 -2.53846154 8.84615385 -6 10 C-6.99 9.67 -7.98 9.34 -9 9 C-6.03 6.03 -3.06 3.06 0 0 Z " fill="#595D63" transform="translate(247,339)"/>
<path d="M0 0 C0 3.52794898 -1.265942 5.13861881 -3.046875 8.0859375 C-4.4717449 10.94735656 -4.68501006 13.85010059 -5 17 C-6 18 -6 18 -9.0625 18.0625 C-10.031875 18.041875 -11.00125 18.02125 -12 18 C-11.3709375 17.93167969 -10.741875 17.86335938 -10.09375 17.79296875 C-9.05734375 17.40044922 -9.05734375 17.40044922 -8 17 C-6.99851229 14.88437652 -6.99851229 14.88437652 -6.5 12.3125 C-5.2266845 7.42912518 -3.63211299 3.63211299 0 0 Z " fill="#5397D0" transform="translate(380,193)"/>
<path d="M0 0 C0.99 0.33 1.98 0.66 3 1 C2.67 1.66 2.34 2.32 2 3 C1.01 3 0.02 3 -1 3 C-1.103125 3.598125 -1.20625 4.19625 -1.3125 4.8125 C-2.10503854 7.33421352 -2.91591409 8.39685699 -5 10 C-5.99 10 -6.98 10 -8 10 C-6.34908222 5.70761377 -3.26245434 3.1206085 0 0 Z " fill="#494E53" transform="translate(262,324)"/>
<path d="M0 0 C3 3.625 3 3.625 3 7 C4.32 6.67 5.64 6.34 7 6 C7.98120464 9.05263664 7.98120464 10.94736336 7 14 C0 5.89473684 0 5.89473684 0 0 Z " fill="#4F97D8" transform="translate(374,163)"/>
<path d="M0 0 C9.54739539 3.85567891 9.54739539 3.85567891 12.3125 7.9375 C13.12563748 10.37691245 12.8531488 11.61118335 12 14 C12 13.01 12 12.02 12 11 C11.34 11 10.68 11 10 11 C9.814375 10.236875 9.62875 9.47375 9.4375 8.6875 C7.43508383 4.94385237 4.84523396 4.53809358 1 3 C0.67 2.01 0.34 1.02 0 0 Z " fill="#5D9DD4" transform="translate(363,245)"/>
<path d="M0 0 C0 3 0 3 -1 5 C-1.66 5 -2.32 5 -3 5 C-3 5.99 -3 6.98 -3 8 C-6.85756507 10.15305957 -9.55129785 11.39253254 -14 11 C-13.44828125 10.76539063 -12.8965625 10.53078125 -12.328125 10.2890625 C-9.40674236 8.67151842 -7.20425503 6.63549805 -4.75 4.375 C-3.41195313 3.14910156 -3.41195313 3.14910156 -2.046875 1.8984375 C-1.37140625 1.27195313 -0.6959375 0.64546875 0 0 Z " fill="#254661" transform="translate(327,204)"/>
<path d="M0 0 C1.32 0.33 2.64 0.66 4 1 C1.03 3.97 -1.94 6.94 -5 10 C-5.66 9.01 -6.32 8.02 -7 7 C-5.824375 6.6596875 -5.824375 6.6596875 -4.625 6.3125 C-1.78125 5.21875 -1.78125 5.21875 -0.6875 2.375 C-0.460625 1.59125 -0.23375 0.8075 0 0 Z " fill="#595F65" transform="translate(260,301)"/>
<path d="M0 0 C0.66 0.66 1.32 1.32 2 2 C0.02 4.31 -1.96 6.62 -4 9 C-5.32 8.34 -6.64 7.68 -8 7 C-5.53058944 4.40062046 -2.81939117 2.20979308 0 0 Z " fill="#4C5158" transform="translate(201,361)"/>
<path d="M0 0 C0.33 0 0.66 0 1 0 C1 2.31 1 4.62 1 7 C0.01 7.495 0.01 7.495 -1 8 C-2.13350534 10.01669827 -2.13350534 10.01669827 -3 12 C-3.99 11.34 -4.98 10.68 -6 10 C-5.34 10 -4.68 10 -4 10 C-3.71125 8.906875 -3.4225 7.81375 -3.125 6.6875 C-2 3 -2 3 0 0 Z " fill="#519BD9" transform="translate(323,286)"/>
<path d="M0 0 C0.99 0.33 1.98 0.66 3 1 C3 2.98 3 4.96 3 7 C1.02 6.34 -0.96 5.68 -3 5 C-3 4.34 -3 3.68 -3 3 C-2.34 3 -1.68 3 -1 3 C-0.67 2.01 -0.34 1.02 0 0 Z " fill="#4F535C" transform="translate(243,288)"/>
<path d="M0 0 C0 0.33 0 0.66 0 1 C-4.455 1.495 -4.455 1.495 -9 2 C-9 1.34 -9 0.68 -9 0 C-10.98 0 -12.96 0 -15 0 C-15 -0.33 -15 -0.66 -15 -1 C-9.3067505 -2.18609365 -5.57432514 -1.66251802 0 0 Z M-10 2 C-9.67 2.66 -9.34 3.32 -9 4 C-9.66 3.67 -10.32 3.34 -11 3 C-10.67 2.67 -10.34 2.34 -10 2 Z " fill="#797F83" transform="translate(301,270)"/>
<path d="M0 0 C0.94875 0.350625 1.8975 0.70125 2.875 1.0625 C5.87060172 2.35026777 5.87060172 2.35026777 8 1 C8.33 1.99 8.66 2.98 9 4 C8.34 4 7.68 4 7 4 C7 5.65 7 7.3 7 9 C6.01 9.495 6.01 9.495 5 10 C5.33 8.35 5.66 6.7 6 5 C5.38125 4.731875 4.7625 4.46375 4.125 4.1875 C2 3 2 3 0 0 Z " fill="#4F9ADA" transform="translate(352,262)"/>
<path d="M0 0 C0.99 0.66 1.98 1.32 3 2 C2.38125 2.2475 1.7625 2.495 1.125 2.75 C-1.35068687 4.20628639 -1.95125002 5.37812506 -3 8 C-3.99 7.34 -4.98 6.68 -6 6 C-4.02 4.02 -2.04 2.04 0 0 Z " fill="#444A50" transform="translate(287,299)"/>
<path d="M0 0 C0.33 0.66 0.66 1.32 1 2 C1.66 2.33 2.32 2.66 3 3 C0.03 5.475 0.03 5.475 -3 8 C-3 5.69 -3 3.38 -3 1 C-2.01 0.67 -1.02 0.34 0 0 Z " fill="#2B4052" transform="translate(253,354)"/>
<path d="M0 0 C0.99 0 1.98 0 3 0 C1.4169423 4.2742558 -1.50568404 6.26531794 -5 9 C-4.67 7.68 -4.34 6.36 -4 5 C-3.34 5 -2.68 5 -2 5 C-1.34 3.35 -0.68 1.7 0 0 Z " fill="#585D63" transform="translate(269,292)"/>
<path d="M0 0 C1.32 0 2.64 0 4 0 C4.66 2.64 5.32 5.28 6 8 C5.01 7.67 4.02 7.34 3 7 C2.67 6.01 2.34 5.02 2 4 C1.34 4 0.68 4 0 4 C0 2.68 0 1.36 0 0 Z " fill="#D8F2FD" transform="translate(376,229)"/>
<path d="M0 0 C1.98 0 3.96 0 6 0 C5.67 0.99 5.34 1.98 5 3 C4.01 3 3.02 3 2 3 C1.67 4.32 1.34 5.64 1 7 C0.01 6.67 -0.98 6.34 -2 6 C-1.34 6 -0.68 6 0 6 C0 4.02 0 2.04 0 0 Z " fill="#4C535A" transform="translate(340,217)"/>
<path d="M0 0 C0.33 0.99 0.66 1.98 1 3 C-0.125 5.125 -0.125 5.125 -2 7 C-4.6875 7.75 -4.6875 7.75 -7 8 C-6.02133662 6.85373678 -5.04205413 5.70800212 -4.0625 4.5625 C-3.51722656 3.92441406 -2.97195312 3.28632813 -2.41015625 2.62890625 C-1.63204305 1.73008851 -0.84063472 0.84063472 0 0 Z " fill="#4791CD" transform="translate(246,366)"/>
<path d="M0 0 C0.66 0.33 1.32 0.66 2 1 C1.34 1.66 0.68 2.32 0 3 C0.33 3.66 0.66 4.32 1 5 C0.67 5.66 0.34 6.32 0 7 C-2.64 7 -5.28 7 -8 7 C-5 5 -5 5 -3 5 C-2.690625 4.360625 -2.38125 3.72125 -2.0625 3.0625 C-1 1 -1 1 0 0 Z " fill="#767D83" transform="translate(238,293)"/>
<path d="M0 0 C1.32 0.33 2.64 0.66 4 1 C2.71034824 2.37562854 1.37310707 3.70766393 0 5 C-0.66 5 -1.32 5 -2 5 C-2.33 5.99 -2.66 6.98 -3 8 C-3.33 6.68 -3.66 5.36 -4 4 C-2.68 3.67 -1.36 3.34 0 3 C0 2.01 0 1.02 0 0 Z " fill="#25425B" transform="translate(239,369)"/>
<path d="M0 0 C0.99 0 1.98 0 3 0 C2.65120368 3.25543229 1.97866739 4.01873107 -0.5625 6.25 C-1.366875 6.8275 -2.17125 7.405 -3 8 C-2.45276317 4.62537285 -1.9451 2.91765 0 0 Z " fill="#63A8E0" transform="translate(404,363)"/>
<path d="M0 0 C0.66 0.99 1.32 1.98 2 3 C0.68 4.32 -0.64 5.64 -2 7 C-2 6.01 -2 5.02 -2 4 C-2.66 4 -3.32 4 -4 4 C-3.67 3.01 -3.34 2.02 -3 1 C-2.01 0.67 -1.02 0.34 0 0 Z " fill="#2D343C" transform="translate(299,282)"/>
<path d="M0 0 C2 3 2 3 2 5 C0.35 5.66 -1.3 6.32 -3 7 C-3.66 6.34 -4.32 5.68 -5 5 C-3.35 3.35 -1.7 1.7 0 0 Z " fill="#686E74" transform="translate(227,359)"/>
<path d="M0 0 C-1.39332574 3.36720387 -2.9789286 4.9859524 -6 7 C-6.33 5.68 -6.66 4.36 -7 3 C-6.34 2.67 -5.68 2.34 -5 2 C-2 0 -2 0 0 0 Z " fill="#4C5156" transform="translate(213,351)"/>
<path d="M0 0 C0.66 0.33 1.32 0.66 2 1 C0.50902342 4.7952131 -1.75700849 6.61042731 -5 9 C-5.33 8.01 -5.66 7.02 -6 6 C-5.195625 5.7525 -4.39125 5.505 -3.5625 5.25 C-0.828919 4.27761141 -0.828919 4.27761141 -0.1875 1.875 C-0.125625 1.25625 -0.06375 0.6375 0 0 Z " fill="#585D63" transform="translate(228,333)"/>
<path d="M0 0 C1.485 0.99 1.485 0.99 3 2 C5.0492094 2.45139459 5.0492094 2.45139459 7.1875 2.625 C8.445625 2.74875 9.70375 2.8725 11 3 C11 3.33 11 3.66 11 4 C8.36 4 5.72 4 3 4 C2.67 4.66 2.34 5.32 2 6 C1.01 5.34 0.02 4.68 -1 4 C-0.67 2.68 -0.34 1.36 0 0 Z " fill="#61686F" transform="translate(122,296)"/>
<path d="M0 0 C2.625 -0.1875 2.625 -0.1875 5 0 C3.35 1.98 1.7 3.96 0 6 C-0.99 5.67 -1.98 5.34 -3 5 C-2 3 -2 3 0 0 Z " fill="#545A5F" transform="translate(275,285)"/>
<path d="M0 0 C2.6875 -0.3125 2.6875 -0.3125 5 0 C5 0.66 5 1.32 5 2 C3.03852126 3.38938077 1.03833424 4.7260411 -1 6 C-1.66 5.67 -2.32 5.34 -3 5 C-1.8125 2.5 -1.8125 2.5 0 0 Z " fill="#7B8187" transform="translate(216,392)"/>
<path d="M0 0 C0.99 0.33 1.98 0.66 3 1 C1.29374499 3.78388975 0.52373261 4.85384206 -2.6875 5.75 C-3.8321875 5.87375 -3.8321875 5.87375 -5 6 C-3.35 4.02 -1.7 2.04 0 0 Z " fill="#666B70" transform="translate(233,353)"/>
<path d="M0 0 C0.99 0 1.98 0 3 0 C2.67 1.32 2.34 2.64 2 4 C2.66 4 3.32 4 4 4 C4.33 5.98 4.66 7.96 5 10 C2.66063182 7.87330165 1.19346152 5.93775144 0 3 C0 2.01 0 1.02 0 0 Z " fill="#6D7176" transform="translate(88,325)"/>
<path d="M0 0 C0.99 0 1.98 0 3 0 C2.34 2.31 1.68 4.62 1 7 C-0.32 5.68 -1.64 4.36 -3 3 C-2.01 3 -1.02 3 0 3 C0 2.01 0 1.02 0 0 Z " fill="#545B61" transform="translate(292,277)"/>
<path d="M0 0 C1.32 1.32 2.64 2.64 4 4 C3.01 5.98 2.02 7.96 1 10 C0.67 10 0.34 10 0 10 C0 6.7 0 3.4 0 0 Z " fill="#5A6167" transform="translate(177,367)"/>
<path d="M0 0 C2 3 2 3 2 5 C3.65 5 5.3 5 7 5 C4.35261084 6.4606285 3.10551666 7 0 7 C-0.93423645 3.98968256 -1.04449911 3.13349732 0 0 Z " fill="#717A80" transform="translate(279,263)"/>
<path d="M0 0 C1.32 0.33 2.64 0.66 4 1 C2.35 3.64 0.7 6.28 -1 9 C-2.25541557 5.23375329 -1.37061958 3.62811066 0 0 Z " fill="#DCF3FD" transform="translate(376,193)"/>
<path d="M0 0 C2.475 0.495 2.475 0.495 5 1 C5 2.65 5 4.3 5 6 C3.68 6.33 2.36 6.66 1 7 C1.66 5.35 2.32 3.7 3 2 C2.01 1.67 1.02 1.34 0 1 C0 0.67 0 0.34 0 0 Z " fill="#D3F2FD" transform="translate(389,181)"/>
<path d="M0 0 C6.875 3.75 6.875 3.75 8 6 C6.35 6 4.7 6 3 6 C2.67 4.68 2.34 3.36 2 2 C1.34 2 0.68 2 0 2 C0 1.34 0 0.68 0 0 Z " fill="#777F85" transform="translate(294,112)"/>
<path d="M0 0 C1.98 0 3.96 0 6 0 C4.35 1.65 2.7 3.3 1 5 C0.67 3.35 0.34 1.7 0 0 Z " fill="#294257" transform="translate(242,364)"/>
<path d="M0 0 C0.99 0.99 1.98 1.98 3 3 C2.67 3.99 2.34 4.98 2 6 C0.35 4.68 -1.3 3.36 -3 2 C-2.01 1.34 -1.02 0.68 0 0 Z " fill="#3B4853" transform="translate(307,217)"/>
<path d="M0 0 C0.99 0.495 0.99 0.495 2 1 C2.40729228 3.32156597 2.74438677 5.6568787 3 8 C2.01 8 1.02 8 0 8 C0 5.36 0 2.72 0 0 Z " fill="#4A97D9" transform="translate(364,200)"/>
<path d="M0 0 C0.33 0.66 0.66 1.32 1 2 C1.66 2 2.32 2 3 2 C2 4 1 6 0 8 C-0.66 8 -1.32 8 -2 8 C-2 7.01 -2 6.02 -2 5 C-1.34 5 -0.68 5 0 5 C0 3.35 0 1.7 0 0 Z " fill="#545A60" transform="translate(122,157)"/>
<path d="M0 0 C0.66 0.33 1.32 0.66 2 1 C2 2.65 2 4.3 2 6 C0.0625 5.1875 0.0625 5.1875 -2 4 C-2.33 3.01 -2.66 2.02 -3 1 C-2.01 0.67 -1.02 0.34 0 0 Z " fill="#5C6168" transform="translate(109,110)"/>
</svg>
