<svg width="64" height="58" viewBox="0 0 64 58" fill="none" xmlns="http://www.w3.org/2000/svg">
<g clip-path="url(#clip0_2318_11722)">
<path d="M9.33889 0.00483645C9.65539 0.00403682 9.97188 0.00298727 10.2884 0.00170892C11.1421 -0.000959628 11.9957 5.8019e-05 12.8494 0.00193219C13.746 0.00343163 14.6426 0.00203818 15.5392 0.00111577C17.0442 4.67322e-05 18.5492 0.00144992 20.0542 0.00426127C21.7904 0.00746728 23.5266 0.00642686 25.2628 0.00318555C26.7579 0.000506986 28.2529 0.000138393 29.7479 0.00167697C30.639 0.00259188 31.53 0.00272677 32.421 0.000772009C33.2588 -0.000937848 34.0966 0.000266254 34.9343 0.00365464C35.2405 0.00442887 35.5467 0.00421762 35.8529 0.00291095C38.4855 -0.00728214 40.6446 0.292822 42.6174 2.17469C43.254 2.87738 43.6732 3.6044 44.0407 4.47847C44.2228 4.86242 44.2228 4.86242 44.8134 4.98923C45.2731 5.00756 45.7332 5.0138 46.1933 5.01396C46.403 5.01451 46.403 5.01451 46.6169 5.01508C46.9205 5.01586 47.2242 5.01627 47.5278 5.01634C48.1755 5.01702 48.8231 5.02121 49.4707 5.02522C50.6759 5.03267 51.8811 5.03883 53.0863 5.03841C53.9251 5.03825 54.7639 5.04288 55.6028 5.05056C55.9211 5.0526 56.2394 5.05292 56.5577 5.05141C58.6727 5.0424 60.3146 5.20857 61.9725 6.65801C62.1094 6.81998 62.2463 6.98195 62.3874 7.14883C62.5244 7.29865 62.6613 7.44848 62.8024 7.60284C63.8445 9.10467 63.9797 10.804 63.9757 12.5975C63.9761 12.7447 63.9766 12.8919 63.977 13.0435C63.9782 13.5334 63.9781 14.0233 63.9779 14.5132C63.9785 14.8658 63.9792 15.2184 63.9799 15.571C63.9816 16.5267 63.9821 17.4824 63.9822 18.4381C63.9824 19.0359 63.9828 19.6338 63.9833 20.2316C63.9851 22.3192 63.9859 24.4068 63.9858 26.4944C63.9856 28.4369 63.9877 30.3795 63.9908 32.3221C63.9933 33.9926 63.9944 35.6632 63.9943 37.3337C63.9942 38.3302 63.9948 39.3267 63.9968 40.3232C63.9987 41.2611 63.9987 42.1989 63.9973 43.1368C63.9971 43.4797 63.9976 43.8226 63.9987 44.1655C64.0079 46.9988 64.0127 49.3205 62.0388 51.5134C60.2339 53.2686 58.1098 53.4007 55.7089 53.3749C55.4162 53.3747 55.1235 53.3748 54.8307 53.3753C54.0425 53.3755 53.2544 53.3709 52.4662 53.3654C51.6401 53.3604 50.814 53.36 49.9878 53.3591C48.4263 53.3566 46.8649 53.3502 45.3034 53.3423C43.5245 53.3335 41.7456 53.3292 39.9667 53.3253C36.31 53.3171 32.6534 53.3033 28.9967 53.2858C28.9967 53.4153 28.9967 53.5449 28.9967 53.6784C28.8679 53.6784 28.739 53.6784 28.6062 53.6784C28.6062 53.808 28.6062 53.9376 28.6062 54.0711C28.4773 54.0711 28.3485 54.0711 28.2157 54.0711C28.2157 54.2006 28.2157 54.3302 28.2157 54.4637C28.0868 54.4637 27.9579 54.4637 27.8251 54.4637C27.8251 54.5933 27.8251 54.7229 27.8251 54.8564C27.5405 55.1036 27.2544 55.3495 26.9594 55.5842C26.6283 55.8453 26.6283 55.8453 26.2996 56.2429C25.465 56.9862 24.432 57.4515 23.3096 57.4823C22.5411 57.4075 21.915 57.2603 21.1861 57.016C21.1861 56.8864 21.1861 56.7568 21.1861 56.6233C21.0652 56.595 20.9444 56.5666 20.8199 56.5374C20.405 56.427 20.405 56.427 20.0145 56.2307C20.0145 56.1011 20.0145 55.9715 20.0145 55.838C19.8856 55.838 19.7567 55.838 19.6239 55.838C19.6239 55.7084 19.6239 55.5789 19.6239 55.4454C19.4951 55.4454 19.3662 55.4454 19.2334 55.4454C19.2334 55.3158 19.2334 55.1862 19.2334 55.0527C19.1045 55.0527 18.9756 55.0527 18.8429 55.0527C18.0066 53.6423 17.7189 52.5902 17.8665 50.9298C18.0131 50.4237 18.2076 50.0287 18.4523 49.5555C18.5671 49.3187 18.5671 49.3187 18.6842 49.077C18.7366 48.9758 18.7889 48.8745 18.8429 48.7702C18.9717 48.7702 19.1006 48.7702 19.2334 48.7702C19.2334 48.6407 19.2334 48.5111 19.2334 48.3776C19.3623 48.3776 19.4911 48.3776 19.6239 48.3776C19.6884 48.1832 19.7528 47.9888 19.8192 47.7886C19.649 47.787 19.4788 47.7854 19.3034 47.7838C17.6946 47.7684 16.0859 47.7513 14.4772 47.7321C13.6503 47.7224 12.8234 47.7133 11.9964 47.7058C11.1975 47.6985 10.3986 47.6894 9.59968 47.679C9.29578 47.6754 8.99186 47.6724 8.68794 47.6701C5.75564 47.6472 5.75564 47.6472 4.39309 47.1996C4.25037 47.153 4.10765 47.1065 3.9606 47.0585C2.29631 46.2996 1.10689 44.7905 0.420625 43.1166C0.118237 42.0959 0.0719294 41.1001 0.0684765 40.04C0.0673996 39.8248 0.0673994 39.8248 0.0663007 39.6051C0.064158 39.1264 0.0633974 38.6476 0.0626515 38.1689C0.0614273 37.8247 0.0601293 37.4805 0.0587632 37.1363C0.0546651 36.0077 0.0526322 34.879 0.0506857 33.7504C0.0498949 33.3609 0.0490914 32.9714 0.0482745 32.5819C0.0445564 30.7513 0.0417768 28.9207 0.0401486 27.0902C0.0382419 24.9817 0.033106 22.8733 0.0252107 20.7648C0.019308 19.1321 0.0164289 17.4995 0.0157834 15.8668C0.0153259 14.893 0.0135945 13.9194 0.00866303 12.9457C0.00409312 12.0286 0.00330002 11.1115 0.0052969 10.1944C0.00539307 9.85961 0.00417579 9.52477 0.00147862 9.18995C-0.0175522 6.68546 0.123151 4.21058 1.85462 2.24065C1.98349 2.24065 2.11237 2.24065 2.24515 2.24065C2.30959 2.04628 2.37403 1.85192 2.44042 1.65167C4.36008 -0.041028 6.93543 -0.00543501 9.33889 0.00483645ZM7.25478 10.7331C6.92714 11.2791 6.83435 11.5306 6.83632 12.1556C6.83497 12.3269 6.83361 12.4981 6.83221 12.6746C6.83472 12.8601 6.83722 13.0456 6.83979 13.2368C6.83937 13.4342 6.83894 13.6317 6.8385 13.8351C6.83805 14.4892 6.84318 15.1431 6.84842 15.7972C6.84939 16.2555 6.85003 16.7138 6.85037 17.1721C6.85186 18.1354 6.85588 19.0988 6.86191 20.0621C6.86956 21.2833 6.87315 22.5045 6.87506 23.7257C6.87703 24.9031 6.88089 26.0804 6.88504 27.2578C6.8857 27.4764 6.88636 27.6949 6.88704 27.9201C6.89555 30.2511 6.92422 32.5817 6.99549 34.9117C6.9997 35.1121 7.00391 35.3126 7.00825 35.5191C7.01495 35.7038 7.02164 35.8886 7.02854 36.0789C7.03336 36.2412 7.03818 36.4036 7.04314 36.5709C7.1476 37.0948 7.28049 37.272 7.71263 37.5796C8.11882 37.6694 8.11882 37.6694 8.57449 37.6583C8.75077 37.6608 8.92704 37.6633 9.10866 37.6659C9.3016 37.6657 9.49455 37.6654 9.69333 37.6651C9.89692 37.6671 10.1005 37.6691 10.3102 37.6711C10.9852 37.6767 11.66 37.6779 12.335 37.6785C12.8037 37.6804 13.2724 37.6824 13.7411 37.6844C14.7247 37.688 15.7083 37.6891 16.6919 37.6887C17.9515 37.6886 19.211 37.6967 20.4706 37.7068C21.4392 37.7134 22.4078 37.7146 23.3764 37.7143C23.8407 37.715 24.305 37.7176 24.7693 37.7221C25.4196 37.7279 26.0694 37.7262 26.7197 37.7226C26.9111 37.726 27.1024 37.7293 27.2996 37.7327C28.4656 37.7165 29.092 37.507 29.9425 36.6926C30.2084 36.4115 30.2084 36.4115 30.1684 36.009C30.2972 36.009 30.4261 36.009 30.5589 36.009C30.5589 35.8794 30.5589 35.7498 30.5589 35.6163C26.8215 35.6163 23.0841 35.6163 19.2334 35.6163C19.2334 33.6079 19.2334 31.5994 19.2334 29.5301C19.9356 29.5379 19.9356 29.5379 20.6519 29.5457C22.1989 29.562 23.746 29.5728 25.2931 29.581C26.2311 29.5861 27.169 29.5931 28.1069 29.6042C29.0122 29.6149 29.9174 29.6207 30.8227 29.6233C31.168 29.6251 31.5133 29.6286 31.8585 29.6339C32.3424 29.6411 32.826 29.642 33.3099 29.6416C33.4525 29.6451 33.5951 29.6486 33.7419 29.6523C34.5111 29.6445 34.8196 29.5601 35.4153 29.0536C35.5525 28.8869 35.6897 28.7202 35.8311 28.5485C36.1872 28.2363 36.5496 27.9341 36.9142 27.6321C37.2229 27.3788 37.2229 27.3788 37.3932 26.9779C37.4144 26.4849 37.424 25.9972 37.4247 25.504C37.4257 25.352 37.4266 25.2 37.4276 25.0434C37.4305 24.5394 37.4318 24.0354 37.4329 23.5314C37.434 23.1817 37.4351 22.832 37.4363 22.4823C37.4383 21.7486 37.4395 21.0148 37.4401 20.281C37.4412 19.3404 37.4459 18.3999 37.4515 17.4594C37.4551 16.7368 37.4561 16.0143 37.4564 15.2917C37.457 14.945 37.4586 14.5982 37.4611 14.2515C37.4645 13.7664 37.4641 13.2815 37.4628 12.7964C37.4655 12.5813 37.4655 12.5813 37.4683 12.3618C37.4633 11.7547 37.4265 11.3324 37.1326 10.796C36.5188 10.2116 35.8769 10.2641 35.0741 10.2599C34.8346 10.2582 34.595 10.2565 34.3482 10.2547C34.0823 10.2539 33.8164 10.253 33.5505 10.2522C33.2708 10.2507 32.9911 10.249 32.7114 10.2473C31.7928 10.2422 30.8742 10.2392 29.9555 10.2364C29.6394 10.2353 29.3232 10.2343 29.007 10.2332C27.6922 10.229 26.3774 10.2253 25.0627 10.2231C23.1776 10.2199 21.2927 10.2134 19.4077 10.2022C18.0825 10.1946 16.7574 10.1908 15.4322 10.1897C14.6404 10.189 13.8488 10.1866 13.0571 10.1803C12.3126 10.1744 11.5682 10.1731 10.8237 10.1754C10.5504 10.1755 10.277 10.1739 10.0038 10.1704C9.63084 10.166 9.25786 10.1682 8.88493 10.1707C8.5718 10.1697 8.5718 10.1697 8.25234 10.1687C7.67569 10.249 7.67569 10.249 7.25478 10.7331ZM52.4288 15.5909C52.5577 15.7205 52.6866 15.8501 52.8193 15.9836C52.8193 15.854 52.8193 15.7244 52.8193 15.5909C52.6905 15.5909 52.5616 15.5909 52.4288 15.5909ZM50.0856 22.4624C50.0856 22.6567 50.0856 22.8511 50.0856 23.0513C50.5689 23.2457 50.5689 23.2457 51.0619 23.444C50.9975 23.1201 50.9331 22.7961 50.8667 22.4624C50.6089 22.4624 50.3512 22.4624 50.0856 22.4624ZM39.9317 28.7448C39.9317 28.8744 39.9317 29.004 39.9317 29.1375C39.6095 29.2671 39.2873 29.3966 38.9554 29.5301C38.9554 29.6597 38.9554 29.7893 38.9554 29.9228C38.8305 29.9714 38.7057 30.02 38.577 30.07C38.1438 30.279 38.1438 30.279 38.0156 30.7081C37.943 31.1148 37.943 31.1148 38.1743 31.4934C38.9392 31.7337 39.6946 31.6942 40.4862 31.6836C40.9704 31.6907 41.4158 31.7645 41.8844 31.8861C41.836 31.6856 41.836 31.6856 41.7867 31.4812C41.6143 30.4628 41.6787 29.5529 41.8844 28.5485C41.6687 28.2885 41.6687 28.2885 41.1277 28.3154C40.4852 28.3024 40.4852 28.3024 39.9317 28.7448ZM51.6477 30.3155C51.5833 30.5746 51.5189 30.8338 51.4525 31.1008C51.7947 31.4244 51.7947 31.4244 52.2335 31.6897C52.6647 31.6471 52.6647 31.6471 53.0146 31.4934C52.6991 31.0927 52.373 30.7001 52.0383 30.3155C51.9094 30.3155 51.7805 30.3155 51.6477 30.3155ZM38.2104 34.4986C38.065 34.6426 37.9197 34.7865 37.7699 34.9349C37.6123 35.0949 37.4547 35.2549 37.2924 35.4197C37.0413 35.6701 37.0413 35.6701 36.7851 35.9256C36.3262 36.3842 35.869 36.8445 35.4128 37.3057C34.935 37.788 34.4554 38.2684 33.976 38.7491C33.1711 39.557 32.3679 40.3665 31.5656 41.1769C30.6382 42.1136 29.708 43.0474 28.7764 43.9798C27.9766 44.7803 27.1784 45.5824 26.3814 46.3858C25.9054 46.8656 25.4289 47.3449 24.951 47.8228C24.4181 48.3559 23.8884 48.8921 23.359 49.4288C23.2003 49.5868 23.0415 49.7448 22.878 49.9076C22.7342 50.0543 22.5905 50.2011 22.4424 50.3522C22.3169 50.4787 22.1914 50.6052 22.0621 50.7355C21.7179 51.1988 21.6261 51.5347 21.5766 52.1078C21.8104 52.5289 21.8104 52.5289 22.1868 52.8686C22.3041 52.9895 22.4214 53.1105 22.5423 53.2351C22.9276 53.523 22.9276 53.523 23.3826 53.4679C24.1239 53.2165 24.5707 52.7378 25.1061 52.1884C25.2778 52.0169 25.2778 52.0169 25.4529 51.842C25.8298 51.4644 26.204 51.0841 26.578 50.7036C26.8392 50.4406 27.1005 50.1777 27.3619 49.9149C27.9088 49.3644 28.4544 48.8126 28.9991 48.2597C29.6986 47.5497 30.4007 46.8423 31.1037 46.1358C31.643 45.5935 32.1813 45.0501 32.7193 44.5063C32.9779 44.245 33.2368 43.984 33.4959 43.7232C33.8569 43.3594 34.2165 42.9944 34.5758 42.6289C34.6838 42.5205 34.7919 42.4121 34.9032 42.3003C35.462 41.7996 35.462 41.7996 35.6358 41.1135C35.7647 41.1135 35.8936 41.1135 36.0264 41.1135C36.0264 40.9839 36.0264 40.8543 36.0264 40.7208C36.1552 40.7208 36.2841 40.7208 36.4169 40.7208C36.4169 40.5912 36.4169 40.4617 36.4169 40.3282C36.5458 40.3282 36.6747 40.3282 36.8074 40.3282C36.8074 40.1986 36.8074 40.069 36.8074 39.9355C36.9363 39.9355 37.0652 39.9355 37.198 39.9355C37.198 39.8059 37.198 39.6763 37.198 39.5428C37.311 39.4923 37.4241 39.4418 37.5406 39.3897C38.3476 38.9489 38.9525 38.2604 39.6022 37.6164C39.7493 37.4766 39.8964 37.3367 40.048 37.1927C40.1861 37.0559 40.3242 36.9191 40.4664 36.7782C40.5933 36.6542 40.7203 36.5302 40.8511 36.4025C41.1562 36.0141 41.1562 36.0141 41.061 35.4922C40.8963 34.9917 40.7308 34.7434 40.3589 34.377C40.2609 34.2765 40.163 34.176 40.0621 34.0725C39.2732 33.5319 38.7842 33.9231 38.2104 34.4986ZM43.837 34.6347C44.0323 35.2236 44.0323 35.2236 44.0323 35.2236L43.837 34.6347Z" fill="#333C45"/>
<path d="M43.8371 4.59668C43.9688 4.6605 44.1005 4.72432 44.2362 4.79007C44.9329 5.03059 45.5009 5.03736 46.2376 5.03636C46.3775 5.03675 46.5173 5.03715 46.6614 5.03755C46.964 5.03825 47.2666 5.0381 47.5692 5.0372C48.0496 5.0361 48.53 5.03791 49.0105 5.04058C50.3763 5.04785 51.742 5.05152 53.1077 5.0493C53.9445 5.04814 54.7812 5.05176 55.618 5.05831C55.9352 5.05986 56.2524 5.05963 56.5696 5.05752C58.6819 5.04405 60.3167 5.21049 61.9725 6.65812C62.1094 6.82009 62.2464 6.98206 62.3874 7.14894C62.5244 7.29876 62.6613 7.44858 62.8024 7.60294C63.8445 9.10477 63.9797 10.8041 63.9757 12.5976C63.9761 12.7448 63.9766 12.892 63.977 13.0436C63.9783 13.5335 63.9781 14.0234 63.978 14.5133C63.9785 14.8659 63.9792 15.2185 63.9799 15.5711C63.9817 16.5268 63.9821 17.4825 63.9822 18.4382C63.9824 19.036 63.9828 19.6339 63.9833 20.2317C63.9851 22.3193 63.9859 24.4069 63.9858 26.4945C63.9857 28.437 63.9877 30.3796 63.9908 32.3222C63.9934 33.9927 63.9944 35.6633 63.9943 37.3338C63.9942 38.3303 63.9948 39.3268 63.9968 40.3233C63.9987 41.2612 63.9987 42.199 63.9973 43.1369C63.9971 43.4798 63.9976 43.8227 63.9988 44.1656C64.0079 46.9989 64.0127 49.3206 62.0389 51.5135C60.2339 53.2687 58.1098 53.4008 55.7089 53.375C55.4162 53.3748 55.1235 53.3749 54.8307 53.3754C54.0425 53.3756 53.2544 53.371 52.4662 53.3655C51.6401 53.3606 50.814 53.3601 49.9879 53.3592C48.4264 53.3568 46.8649 53.3503 45.3035 53.3424C43.5246 53.3336 41.7457 53.3293 39.9667 53.3254C36.3101 53.3172 32.6534 53.3034 28.9968 53.2859C29.3783 52.6259 29.7088 52.1422 30.298 51.6585C31.1752 50.9138 31.9764 50.1089 32.7801 49.2857C33.0537 49.0056 33.3278 48.7259 33.6023 48.4467C33.7212 48.3249 33.8401 48.203 33.9626 48.0775C34.4547 47.6135 34.7996 47.5655 35.4543 47.5441C35.6134 47.5376 35.7725 47.5311 35.9364 47.5245C36.2684 47.5126 36.6005 47.5014 36.9325 47.4908C38.8976 47.4087 40.8769 47.0022 42.3352 45.5831C43.896 43.7288 44.1244 42.1024 44.0873 39.7065C44.0811 39.3085 44.0792 38.9107 44.0781 38.5126C44.0763 37.1329 44.0763 37.1329 43.92 35.7657C43.8371 35.2237 43.8371 35.2237 44.0323 34.6348C43.9035 34.6348 43.7746 34.6348 43.6418 34.6348C43.5967 34.4857 43.5517 34.3366 43.5053 34.1831C43.4416 33.9879 43.3779 33.7928 43.3123 33.5918C43.2511 33.3982 43.19 33.2046 43.1269 33.0051C42.8077 32.3697 42.4999 32.2125 41.8844 31.8862C41.2806 30.8456 41.4158 29.6823 41.6891 28.5486C41.1092 28.4514 41.1092 28.4514 40.5175 28.3523C40.6464 28.2875 40.7753 28.2227 40.9081 28.156C41.0446 27.8975 41.175 27.6356 41.2986 27.3707C41.363 27.3059 41.4275 27.2411 41.4939 27.1743C41.4812 26.6193 41.4564 26.0714 41.4206 25.5178C41.4121 25.3628 41.4035 25.2078 41.3947 25.0481C41.3615 24.2196 41.3615 24.2196 41.1033 23.4441C41.0637 23.076 41.0637 23.076 41.0545 22.6588C41.0495 22.5211 41.0444 22.3834 41.0393 22.2416C41.0604 22.1201 41.0815 21.9986 41.1033 21.8735C41.6891 21.4808 41.6891 21.4808 42.2139 21.5545C42.3629 21.5949 42.5119 21.6354 42.6655 21.6772C42.6655 21.8067 42.6655 21.9363 42.6655 22.0698C42.7727 22.1179 42.8799 22.166 42.9904 22.2155C43.7369 22.6197 44.3743 23.1754 45.0377 23.7033C45.6946 24.0924 46.0157 24.1414 46.7661 24.0331C47.3183 23.7838 47.3183 23.7838 47.84 23.4441C48.638 22.9462 49.1421 22.7706 50.0856 22.8551C50.5494 23.0514 50.5494 23.0514 50.8667 23.2478C50.9311 23.1182 50.9956 22.9886 51.062 22.8551C51.1908 22.8551 51.3197 22.8551 51.4525 22.8551C51.4684 22.4503 51.4797 22.0453 51.4891 21.6403C51.4959 21.4149 51.5027 21.1894 51.5097 20.957C51.4252 19.9912 51.08 19.5096 50.3663 18.8795C49.636 18.3523 49.2327 18.2522 48.3282 18.3396C47.2944 18.8829 46.5139 19.7169 45.6852 20.5329C45.1266 20.9495 44.9008 20.9248 44.2276 20.8918C44.2246 20.616 44.2246 20.616 44.2215 20.3346C44.2024 18.5987 44.1823 16.8627 44.1613 15.1267C44.1506 14.2343 44.1402 13.3419 44.1305 12.4495C44.1211 11.5877 44.1109 10.7259 44.1001 9.86414C44.0961 9.53595 44.0925 9.20776 44.0891 8.87956C44.0844 8.41859 44.0785 7.95764 44.0724 7.49668C44.0713 7.3621 44.0702 7.22752 44.069 7.08886C44.0563 6.23959 43.9715 5.43301 43.8371 4.59668ZM52.4288 15.591C52.5577 15.7206 52.6866 15.8502 52.8194 15.9837C52.8194 15.8541 52.8194 15.7245 52.8194 15.591C52.6905 15.591 52.5616 15.591 52.4288 15.591ZM51.6478 30.3156C51.5833 30.5747 51.5189 30.8339 51.4525 31.1009C51.7947 31.4245 51.7947 31.4245 52.2336 31.6899C52.6647 31.6472 52.6647 31.6472 53.0146 31.4935C52.6991 31.0928 52.373 30.7002 52.0383 30.3156C51.9094 30.3156 51.7805 30.3156 51.6478 30.3156Z" fill="#3D98E5"/>
<path d="M19.2334 12.4497C24.5173 12.4497 29.8013 12.4497 35.2453 12.4497C35.2453 14.6525 35.2453 16.8553 35.2453 19.1248C29.9614 19.1248 24.6774 19.1248 19.2334 19.1248C19.2334 16.922 19.2334 14.7193 19.2334 12.4497Z" fill="#3A424B"/>
<path d="M19.2334 21.0881C24.5173 21.0881 29.8013 21.0881 35.2453 21.0881C35.2453 23.2261 35.2453 25.3641 35.2453 27.5669C34.39 27.7389 33.6392 27.7835 32.7779 27.7675C32.6311 27.7656 32.4843 27.7638 32.3331 27.7618C31.8502 27.7554 31.3674 27.7474 30.8846 27.7395C30.5489 27.7347 30.2132 27.73 29.8775 27.7254C28.9956 27.7131 28.1138 27.6996 27.232 27.6857C26.3315 27.6718 25.4309 27.6591 24.5304 27.6463C22.7647 27.621 20.9991 27.5943 19.2334 27.5669C19.2334 25.4289 19.2334 23.2909 19.2334 21.0881Z" fill="#3A424B"/>
<path d="M42.214 21.5544C42.363 21.5949 42.512 21.6354 42.6655 21.6771C42.6655 21.8067 42.6655 21.9362 42.6655 22.0697C42.8264 22.1419 42.8264 22.1419 42.9905 22.2154C43.7369 22.6196 44.3743 23.1753 45.0377 23.7032C45.6947 24.0923 46.0157 24.1413 46.7661 24.033C47.3184 23.7837 47.3184 23.7837 47.8401 23.444C48.6363 22.9471 49.1433 22.7611 50.0857 22.855C50.6471 23.1495 50.6471 23.1495 51.062 23.444C50.9752 24.251 50.7551 24.9386 50.464 25.6895C50.1486 26.5487 49.9203 27.2323 50.0857 28.1559C50.521 28.7081 50.521 28.7081 51.062 29.1375C51.4159 29.4688 51.4159 29.4688 51.6478 29.7265C51.6478 29.8561 51.6478 29.9857 51.6478 30.1192C51.8411 30.2163 51.8411 30.2163 52.0383 30.3155C51.845 30.4127 51.845 30.4127 51.6478 30.5118C51.7445 30.9005 51.7445 30.9005 51.8431 31.2971C52.5428 31.4939 52.5428 31.4939 53.2099 31.2971C53.1489 31.7634 53.1489 31.7634 53.0147 32.2788C52.3525 32.7226 52.1522 32.7115 51.3808 32.6906C51.1757 32.6902 50.9705 32.6898 50.7592 32.6894C50.3279 32.6856 49.8966 32.6764 49.4655 32.6618C48.8479 32.666 48.3347 32.6895 47.7425 32.8677C47.2413 33.3918 47.0131 33.9586 46.7661 34.6347C46.6614 34.8594 46.5567 35.0841 46.4488 35.3157C46.2683 35.7158 46.0893 36.1167 45.9118 36.5182C45.5945 36.9906 45.5945 36.9906 45.0697 37.1563C44.9207 37.1664 44.7717 37.1765 44.6182 37.1869C44.065 36.5582 43.9077 36.0575 43.8371 35.2237C43.9338 34.9321 43.9338 34.9321 44.0324 34.6347C43.9035 34.6347 43.7746 34.6347 43.6419 34.6347C43.5968 34.4856 43.5517 34.3366 43.5053 34.183C43.4416 33.9879 43.378 33.7927 43.3123 33.5917C43.2206 33.3013 43.2206 33.3013 43.127 33.005C42.8078 32.3696 42.5 32.2124 41.8844 31.8861C41.2807 30.8455 41.4158 29.6823 41.6892 28.5485C41.3026 28.4837 40.9159 28.419 40.5176 28.3522C40.7109 28.255 40.7109 28.255 40.9081 28.1559C41.0447 27.8974 41.1751 27.6356 41.2986 27.3706C41.3631 27.3058 41.4275 27.241 41.4939 27.1742C41.4813 26.6192 41.4565 26.0713 41.4207 25.5177C41.4121 25.3627 41.4036 25.2077 41.3948 25.048C41.3616 24.2195 41.3616 24.2195 41.1034 23.444C41.0637 23.0759 41.0637 23.0759 41.0546 22.6587C41.0495 22.521 41.0445 22.3834 41.0393 22.2415C41.0605 22.12 41.0816 21.9986 41.1034 21.8734C41.6892 21.4807 41.6892 21.4807 42.214 21.5544Z" fill="#F8FAFB"/>
<path d="M9.07959 12.4497C11.786 12.4497 14.4924 12.4497 17.2808 12.4497C17.2808 14.6525 17.2808 16.8553 17.2808 19.1248C14.5744 19.1248 11.868 19.1248 9.07959 19.1248C9.07959 16.922 9.07959 14.7193 9.07959 12.4497Z" fill="#303841"/>
<path d="M9.07959 21.0881C11.786 21.0881 14.4924 21.0881 17.2808 21.0881C17.2808 23.2261 17.2808 25.3641 17.2808 27.5669C16.5536 27.8106 15.8779 27.7914 15.1207 27.7893C14.9669 27.7895 14.813 27.7897 14.6546 27.7899C14.3296 27.79 14.0046 27.7897 13.6796 27.7889C13.1821 27.7878 12.6846 27.7888 12.1871 27.7901C11.8713 27.79 11.5555 27.7897 11.2397 27.7893C11.0908 27.7897 10.9419 27.7901 10.7885 27.7905C10.1669 27.7878 9.67365 27.766 9.07959 27.5669C9.07959 25.4289 9.07959 23.2909 9.07959 21.0881Z" fill="#313A42"/>
<path d="M9.07959 29.53C11.786 29.53 14.4924 29.53 17.2808 29.53C17.2808 31.5385 17.2808 33.5469 17.2808 35.6162C14.5744 35.6162 11.868 35.6162 9.07959 35.6162C9.07959 33.6077 9.07959 31.5993 9.07959 29.53Z" fill="#313A43"/>
<path d="M55.3578 9.89746C55.5512 9.89746 55.7445 9.89746 55.9436 9.89746C56.0051 10.0703 56.0665 10.2432 56.1298 10.4213C56.2133 10.6493 56.2969 10.8773 56.383 11.1122C56.4646 11.3377 56.5461 11.5632 56.6301 11.7955C57.0509 12.7453 57.5155 13.4257 58.4699 13.8608C58.6046 13.9233 58.7392 13.9858 58.878 14.0502C59.3289 14.2451 59.7799 14.436 60.2395 14.6093C60.2395 14.9333 60.2395 15.2572 60.2395 15.591C60.0817 15.6482 59.9239 15.7053 59.7613 15.7643C58.2249 16.3568 57.3379 16.834 56.6469 18.3495C56.4008 18.9313 56.1671 19.5156 55.9436 20.1065C55.6859 20.1065 55.4281 20.1065 55.1626 20.1065C55.0038 19.6934 54.8451 19.2803 54.6866 18.8672C54.5983 18.6371 54.5099 18.4071 54.4189 18.1701C54.2683 17.7714 54.1251 17.3698 53.991 16.9652C53.8621 16.9652 53.7332 16.9652 53.6004 16.9652C53.6004 16.8357 53.6004 16.7061 53.6004 16.5726C53.4849 16.5369 53.3694 16.5012 53.2503 16.4645C52.3873 16.1884 51.6233 15.9099 50.8667 15.3946C50.8926 15.0411 50.8926 15.0411 51.062 14.6093C51.573 14.2818 51.573 14.2818 52.2092 13.9835C52.4181 13.8836 52.627 13.7836 52.8423 13.6806C53.4052 13.4314 53.4052 13.4314 53.991 13.235C54.1388 12.8487 54.2639 12.4537 54.3815 12.0571C54.5126 11.7082 54.647 11.3605 54.7842 11.0141C54.851 10.8448 54.9177 10.6755 54.9864 10.501C55.1626 10.0938 55.1626 10.0938 55.3578 9.89746ZM52.4288 15.591C52.5577 15.7205 52.6866 15.8501 52.8194 15.9836C52.8194 15.854 52.8194 15.7245 52.8194 15.591C52.6905 15.591 52.5616 15.591 52.4288 15.591Z" fill="#F4FBFC"/>
<path d="M56.7247 23.8367C56.9824 23.8367 57.2402 23.8367 57.5058 23.8367C57.5508 23.9574 57.5959 24.0781 57.6423 24.2025C58.0374 25.2158 58.0374 25.2158 58.775 25.984C58.9361 26.0528 59.0972 26.1217 59.2632 26.1926C59.4122 26.2695 59.5612 26.3465 59.7147 26.4257C59.8235 26.4784 59.9322 26.531 60.0442 26.5853C59.9344 26.9534 59.9344 26.9534 59.6537 27.3706C59.3154 27.4617 59.3154 27.4617 58.9703 27.5546C58.2645 27.6831 58.2645 27.6831 58.0427 28.205C57.9944 28.3831 57.9461 28.5613 57.8963 28.7449C57.704 29.139 57.5094 29.532 57.3105 29.9228C57.1172 29.858 56.9239 29.7932 56.7247 29.7265C56.5805 29.3914 56.5805 29.3914 56.4684 28.978C56.1149 27.9322 55.4445 27.6231 54.5035 27.1252C54.3988 27.0766 54.2941 27.028 54.1862 26.9779C54.1862 26.8483 54.1862 26.7188 54.1862 26.5853C54.3418 26.5207 54.3418 26.5207 54.5005 26.4549C55.4862 26.01 56.0141 25.6167 56.5294 24.622C56.6797 24.1849 56.6797 24.1849 56.7247 23.8367Z" fill="#EFF9FD"/>
<path d="M29.5826 52.3042C29.7114 52.369 29.8403 52.4338 29.9731 52.5005C29.9087 52.6301 29.8442 52.7597 29.7778 52.8932C29.9244 52.8928 30.071 52.8925 30.222 52.8921C33.7843 52.8834 37.3466 52.8769 40.9089 52.8728C42.6316 52.8708 44.3543 52.868 46.077 52.8636C47.5781 52.8597 49.0792 52.8571 50.5802 52.8562C51.3754 52.8557 52.1706 52.8545 52.9658 52.8517C53.7136 52.849 54.4614 52.8482 55.2093 52.8488C55.4843 52.8487 55.7593 52.8479 56.0344 52.8464C56.4088 52.8444 56.7832 52.8451 57.1576 52.846C57.4724 52.8454 57.4724 52.8454 57.7935 52.8449C58.2868 52.8932 58.2868 52.8932 58.6774 53.2858C48.8828 53.2858 39.0882 53.2858 28.9968 53.2858C29.1901 52.9619 29.3834 52.638 29.5826 52.3042Z" fill="#8BBDE8"/>
<path d="M9.07959 29.53C11.786 29.53 14.4924 29.53 17.2808 29.53C17.2808 31.5385 17.2808 33.5469 17.2808 35.6162C14.5744 35.6162 11.868 35.6162 9.07959 35.6162C9.07959 33.6077 9.07959 31.5993 9.07959 29.53ZM9.47012 29.9227C9.47012 31.672 9.47012 33.4212 9.47012 35.2235C11.9188 35.2235 14.3674 35.2235 16.8903 35.2235C16.8903 33.4742 16.8903 31.725 16.8903 29.9227C14.4416 29.9227 11.993 29.9227 9.47012 29.9227Z" fill="#4B5056"/>
<path d="M35.2453 29.5301C34.8548 29.9227 34.8548 29.9227 34.2296 29.9625C33.9571 29.9601 33.6847 29.9555 33.4123 29.9493C33.2637 29.9474 33.1151 29.9455 32.962 29.9436C32.4695 29.937 31.9772 29.9276 31.4849 29.9181C31.144 29.913 30.803 29.908 30.4621 29.9032C29.5639 29.8901 28.6657 29.8746 27.7675 29.8587C26.8513 29.8428 25.9351 29.8292 25.019 29.8153C23.2206 29.7879 21.4222 29.7577 19.6239 29.7264C19.6239 31.5404 19.6239 33.3545 19.6239 35.2235C23.4258 35.2235 27.2276 35.2235 31.1447 35.2235C30.7542 35.6162 30.7542 35.6162 30.2698 35.6634C30.066 35.6625 29.8622 35.6617 29.6523 35.6608C29.4216 35.6607 29.191 35.6607 28.9534 35.6607C28.7034 35.6587 28.4534 35.6566 28.1959 35.6545C27.8131 35.6537 27.8131 35.6537 27.4226 35.6529C26.744 35.6514 26.0654 35.6475 25.3868 35.6432C24.6944 35.6391 24.002 35.6373 23.3096 35.6354C21.9508 35.6314 20.5922 35.6237 19.2334 35.6162C19.2334 33.6078 19.2334 31.5993 19.2334 29.5301C21.2634 29.5 23.2934 29.4708 25.3235 29.4431C26.266 29.4302 27.2086 29.4169 28.1511 29.4028C29.0602 29.3892 29.9692 29.3766 30.8783 29.3646C31.2257 29.3599 31.5731 29.3548 31.9205 29.3493C32.4058 29.3418 32.8911 29.3355 33.3764 29.3295C33.5934 29.3256 33.5934 29.3256 33.8148 29.3218C34.8102 29.3113 34.8102 29.3113 35.2453 29.5301Z" fill="#6D7379"/>
<path d="M42.6654 32.0823C43.2632 32.7262 43.4312 33.3949 43.6418 34.242C42.9538 34.4264 42.4092 34.4383 41.6891 34.4383C41.0888 34.5907 41.0888 34.5907 40.7128 35.0273C40.3906 34.6385 40.0684 34.2498 39.7364 33.8493C39.8653 33.5901 39.9942 33.331 40.127 33.064C39.9981 32.9992 39.8692 32.9344 39.7364 32.8677C39.9298 32.5437 40.1231 32.2198 40.3222 31.886C39.9356 31.886 39.549 31.886 39.1506 31.886C39.1506 31.8212 39.1506 31.7564 39.1506 31.6897C40.3867 31.3859 41.4988 31.565 42.6654 32.0823Z" fill="#343C45"/>
<path d="M6.7363 11.2717C6.80074 11.2717 6.86517 11.2717 6.93156 11.2717C7.08596 12.8592 7.15438 14.4271 7.149 16.0217C7.14903 16.248 7.14906 16.4743 7.14909 16.7075C7.14895 17.4468 7.14744 18.1861 7.1459 18.9254C7.14554 19.4415 7.14526 19.9575 7.14506 20.4735C7.14446 21.6875 7.14286 22.9014 7.14089 24.1153C7.1387 25.4989 7.13764 26.8825 7.13666 28.2661C7.13462 31.1088 7.1312 33.9515 7.12683 36.7943C6.56882 36.2332 6.67623 35.6773 6.67404 34.9255C6.67208 34.7728 6.67011 34.62 6.66809 34.4626C6.66202 33.9525 6.65872 33.4423 6.65544 32.9322C6.65178 32.572 6.64796 32.2119 6.64399 31.8518C6.63391 30.8954 6.62622 29.9391 6.61896 28.9827C6.61284 28.2262 6.60506 27.4698 6.59718 26.7133C6.5722 24.3148 6.55419 21.9162 6.54103 19.5175C6.5395 19.2438 6.5395 19.2438 6.53793 18.9645C6.53219 17.9014 6.52785 16.8383 6.52549 15.7751C6.52467 15.4487 6.52354 15.1224 6.52208 14.7961C6.52021 14.3485 6.51961 13.9009 6.51939 13.4534C6.51883 13.2015 6.51827 12.9496 6.5177 12.6901C6.5367 12.1746 6.58242 11.7598 6.7363 11.2717Z" fill="#8B8F96"/>
<path d="M43.8372 4.59668C43.9695 4.66031 44.1018 4.72393 44.2381 4.78948C44.9238 5.02766 45.4832 5.04149 46.2087 5.0457C46.3454 5.04704 46.482 5.04838 46.6228 5.04977C46.918 5.05243 47.2133 5.05421 47.5085 5.05521C47.9754 5.05684 48.4423 5.06087 48.9092 5.06552C50.068 5.07658 51.2267 5.08352 52.3855 5.09058C53.3664 5.0967 54.3473 5.10439 55.3282 5.11419C55.7888 5.11813 56.2494 5.11976 56.71 5.12131C56.9911 5.12386 57.2722 5.12651 57.5533 5.12929C57.7992 5.13073 58.0452 5.13216 58.2986 5.13363C58.8727 5.18566 58.8727 5.18566 59.2633 5.57832C54.366 5.51353 49.4687 5.44874 44.423 5.38199C44.423 10.4355 44.423 15.4889 44.423 20.6955C44.6163 20.6955 44.8096 20.6955 45.0088 20.6955C45.0088 20.5659 45.0088 20.4364 45.0088 20.3029C45.2021 20.3677 45.3954 20.4324 45.5946 20.4992C45.204 20.8918 45.204 20.8918 44.6915 20.9164C44.5384 20.9083 44.3854 20.9002 44.2277 20.8918C44.2257 20.708 44.2237 20.5241 44.2216 20.3346C44.2025 18.5987 44.1824 16.8627 44.1614 15.1267C44.1507 14.2343 44.1402 13.3419 44.1306 12.4495C44.1212 11.5877 44.111 10.7259 44.1002 9.86414C44.0962 9.53595 44.0926 9.20776 44.0892 8.87956C44.0845 8.41859 44.0786 7.95764 44.0725 7.49668C44.0714 7.3621 44.0703 7.22752 44.0691 7.08886C44.0564 6.23959 43.9716 5.43301 43.8372 4.59668Z" fill="#4A8EC5"/>
<path d="M9.07959 21.0881C11.786 21.0881 14.4924 21.0881 17.2808 21.0881C17.2808 23.2261 17.2808 25.3641 17.2808 27.5669C16.5544 27.8104 15.8774 27.7951 15.1207 27.7962C14.9669 27.7969 14.813 27.7975 14.6546 27.7982C14.3296 27.7992 14.0046 27.7997 13.6796 27.7996C13.1821 27.8001 12.6846 27.8036 12.1871 27.8074C11.8713 27.8079 11.5555 27.8083 11.2397 27.8085C11.0908 27.8099 10.9419 27.8113 10.7885 27.8128C10.0478 27.8096 9.71135 27.7941 9.07959 27.3706C11.6571 27.3706 14.2346 27.3706 16.8903 27.3706C16.7936 26.7875 16.7936 26.7875 16.695 26.1926C16.6921 25.7963 16.7004 25.3998 16.7187 25.0039C16.7271 24.8076 16.7355 24.6112 16.7442 24.4089C16.7621 24.0406 16.7621 24.0406 16.7804 23.6649C16.8167 22.8794 16.8529 22.0938 16.8903 21.2845C14.3127 21.2845 11.7352 21.2845 9.07959 21.2845C9.07959 21.2197 9.07959 21.1549 9.07959 21.0881Z" fill="#6E737A"/>
<path d="M9.27486 12.4497C11.9168 12.4497 14.5588 12.4497 17.2808 12.4497C17.2808 14.6525 17.2808 16.8553 17.2808 19.1248C14.5744 19.1248 11.868 19.1248 9.07959 19.1248C9.07959 19.06 9.07959 18.9953 9.07959 18.9285C11.5927 18.8637 14.1058 18.7989 16.695 18.7322C16.6873 16.8673 16.6873 16.8673 16.6774 15.0024C16.6769 14.7717 16.6764 14.541 16.6759 14.3033C16.6749 14.0658 16.6739 13.8283 16.6728 13.5836C16.695 13.0387 16.695 13.0387 16.8903 12.8424C13.1206 12.7452 13.1206 12.7452 9.27486 12.646C9.27486 12.5812 9.27486 12.5165 9.27486 12.4497Z" fill="#80858A"/>
<path d="M44.0323 5.97095C44.0968 5.97095 44.1612 5.97095 44.2276 5.97095C44.2276 10.8948 44.2276 15.8187 44.2276 20.8918C45.2647 20.5443 45.6066 20.3925 46.3511 19.6893C46.58 19.476 46.58 19.476 46.8134 19.2583C46.9267 19.1495 47.0399 19.0407 47.1566 18.9286C47.1566 19.5175 47.1566 19.5175 46.9614 19.9102C46.8325 19.9102 46.7036 19.9102 46.5708 19.9102C46.5708 20.1046 46.5708 20.2989 46.5708 20.4992C46.2586 20.6364 45.9451 20.7709 45.6311 20.9041C45.4567 20.9793 45.2822 21.0544 45.1025 21.1319C44.6182 21.2845 44.6182 21.2845 44.0323 21.0882C44.0323 16.0995 44.0323 11.1108 44.0323 5.97095Z" fill="#223E56"/>
<path d="M41.4939 46.218C41.6228 46.2828 41.7517 46.3476 41.8844 46.4143C41.82 46.5439 41.7556 46.6735 41.6892 46.807C41.8825 46.8718 42.0758 46.9366 42.275 47.0033C42.2105 47.1329 42.1461 47.2625 42.0797 47.396C41.8441 47.3899 41.8441 47.3899 41.6037 47.3837C41.1163 47.3378 41.1163 47.3378 40.9081 47.5923C39.9774 47.7228 39.0624 47.799 38.1233 47.8231C37.8622 47.8302 37.8622 47.8302 37.5958 47.8373C37.2389 47.8458 36.8819 47.8519 36.5249 47.8557C35.3957 47.8912 34.7435 48.0214 33.8785 48.7703C33.814 48.8998 33.7496 49.0294 33.6832 49.1629C33.4899 49.0981 33.2966 49.0334 33.0974 48.9666C33.6137 48.2489 34.1795 47.683 35.0725 47.5143C35.8689 47.4399 36.6611 47.4317 37.4604 47.429C38.6538 47.4134 39.7374 47.1699 40.7861 46.5739C41.169 46.3568 41.169 46.3568 41.4939 46.218Z" fill="#4B94D2"/>
<path d="M6.73643 11.2717C6.80087 11.2717 6.86531 11.2717 6.9317 11.2717C7.09393 12.9423 7.16811 14.5998 7.17578 16.2781C7.17981 16.5043 7.18384 16.7306 7.18799 16.9637C7.189 17.1808 7.19 17.398 7.19104 17.6217C7.19286 17.8164 7.19469 18.0112 7.19657 18.2118C7.11683 18.808 6.93635 19.0753 6.54117 19.5175C6.53634 18.4694 6.53279 17.4213 6.53044 16.3732C6.52946 16.0167 6.52813 15.6602 6.52644 15.3037C6.52406 14.791 6.52296 14.2784 6.5221 13.7657C6.52109 13.6066 6.52008 13.4474 6.51904 13.2835C6.51897 12.5789 6.54693 11.9496 6.73643 11.2717Z" fill="#60686E"/>
<path d="M49.4999 18.1431C50.444 18.6747 51.2978 19.2471 51.6478 20.3027C51.6661 20.6664 51.6732 21.0307 51.6722 21.3948C51.673 21.6806 51.673 21.6806 51.6737 21.9722C51.6478 22.4623 51.6478 22.4623 51.4525 22.855C51.3237 22.855 51.1948 22.855 51.062 22.855C51.1909 22.1423 51.3198 21.4296 51.4525 20.6954C51.3237 20.6954 51.1948 20.6954 51.062 20.6954C50.7768 20.1756 50.6715 19.9308 50.6715 19.3211C50.5426 19.3211 50.4137 19.3211 50.2809 19.3211C50.2165 19.1915 50.1521 19.0619 50.0857 18.9284C49.1747 18.7108 48.2558 18.6646 47.3519 18.9284C48.0483 18.1964 48.4757 18.0441 49.4999 18.1431Z" fill="#25445F"/>
<path d="M36.2827 28.3398C36.4559 28.3439 36.6291 28.3479 36.8075 28.3521C37.0653 28.3521 37.323 28.3521 37.5886 28.3521C37.653 28.4817 37.7174 28.6113 37.7838 28.7448C37.4616 29.1335 37.1395 29.5222 36.8075 29.9227C36.4853 29.8579 36.1631 29.7932 35.8312 29.7264C35.8312 29.5968 35.8312 29.4673 35.8312 29.3338C35.6378 29.3338 35.4445 29.3338 35.2454 29.3338C35.7163 28.3552 35.7163 28.3552 36.2827 28.3398Z" fill="#3C434C"/>
<path d="M52.6241 16.1799C53.1074 16.3743 53.1074 16.3743 53.6005 16.5726C53.6005 16.7022 53.6005 16.8317 53.6005 16.9652C53.7294 16.9652 53.8582 16.9652 53.991 16.9652C54.1557 17.2751 54.3179 17.5862 54.4792 17.8978C54.5698 18.0709 54.6604 18.244 54.7538 18.4224C54.9674 18.9285 54.9674 18.9285 54.9674 19.7138C54.774 19.7138 54.5807 19.7138 54.3815 19.7138C54.3815 19.5195 54.3815 19.3251 54.3815 19.1248C54.1882 19.0601 53.9949 18.9953 53.7957 18.9285C53.7957 18.4102 53.7957 17.8919 53.7957 17.3579C53.4736 17.2931 53.1514 17.2283 52.8194 17.1616C52.755 16.8376 52.6905 16.5137 52.6241 16.1799Z" fill="#4796DF"/>
<path d="M50.8667 24.4255C50.9311 24.4255 50.9955 24.4255 51.0619 24.4255C50.9978 25.4655 50.9537 26.1543 50.2809 26.9778C50.1506 27.4601 50.1506 27.4601 50.2809 27.9594C50.7161 28.4789 50.7161 28.4789 51.2572 28.9411C51.5247 29.1955 51.7874 29.4554 52.0383 29.7264C52.0383 29.856 52.0383 29.9855 52.0383 30.119C51.6477 30.119 51.6477 30.119 51.184 29.6896C51.0148 29.5073 50.8457 29.3251 50.6714 29.1374C50.5224 28.9835 50.3734 28.8297 50.2198 28.6711C49.7685 27.9652 49.7833 27.6155 49.8903 26.7815C50.4892 24.8051 50.4892 24.8051 50.8667 24.4255Z" fill="#5198D4"/>
<path d="M4.58837 0.473633C4.71724 0.538421 4.84612 0.603209 4.9789 0.66996C4.9789 0.9939 4.9789 1.31784 4.9789 1.6516C4.3931 1.84792 4.3931 1.84792 3.8073 1.84792C3.33622 2.02121 2.88896 2.21143 2.44043 2.43691C2.70554 1.47733 3.15713 1.15569 4.00257 0.66996C4.19588 0.605172 4.3892 0.540384 4.58837 0.473633Z" fill="#4B5057"/>
<path d="M53.0147 32.6715C52.9503 32.8011 52.8859 32.9306 52.8195 33.0641C51.2085 33.0641 49.5976 33.0641 47.9378 33.0641C47.6156 33.6472 47.2934 34.2303 46.9615 34.8311C46.8326 34.7663 46.7037 34.7015 46.5709 34.6348C46.7292 34.3441 46.8879 34.0538 47.0469 33.7636C47.1794 33.521 47.1794 33.521 47.3146 33.2735C47.5473 32.8678 47.5473 32.8678 47.7425 32.6715C48.513 32.596 49.288 32.5791 50.0613 32.5488C50.2791 32.5387 50.4968 32.5285 50.7211 32.5181C50.9298 32.5095 51.1384 32.5009 51.3534 32.492C51.5455 32.484 51.7375 32.476 51.9353 32.4678C52.4289 32.4752 52.4289 32.4752 53.0147 32.6715Z" fill="#4B95D4"/>
<path d="M30.9495 40.9172C31.2073 40.9172 31.4651 40.9172 31.7306 40.9172C31.4654 41.5147 31.1673 41.923 30.7039 42.3805C30.5819 42.502 30.4598 42.6234 30.334 42.7486C30.2069 42.8731 30.0798 42.9976 29.9488 43.1259C29.8202 43.2535 29.6916 43.381 29.559 43.5124C29.2423 43.8262 28.9248 44.1391 28.6063 44.4511C28.5419 44.2568 28.4775 44.0624 28.4111 43.8621C28.5399 43.8621 28.6688 43.8621 28.8016 43.8621C28.866 43.603 28.9305 43.3438 28.9969 43.0768C29.1902 43.0768 29.3835 43.0768 29.5827 43.0768C29.5827 42.9473 29.5827 42.8177 29.5827 42.6842C29.7116 42.6842 29.8404 42.6842 29.9732 42.6842C30.1021 42.425 30.231 42.1659 30.3637 41.8989C30.4926 41.8989 30.6215 41.8989 30.7543 41.8989C30.8187 41.5749 30.8832 41.251 30.9495 40.9172Z" fill="#585D63"/>
<path d="M50.6715 18.1431C51.1169 18.3222 51.3959 18.4534 51.6722 18.8548C51.9078 19.4977 51.8801 20.0615 51.8675 20.7444C51.864 20.9924 51.8604 21.2404 51.8568 21.496C51.8523 21.6853 51.8478 21.8746 51.8431 22.0696C51.7786 22.0696 51.7142 22.0696 51.6478 22.0696C51.6225 21.835 51.6225 21.835 51.5967 21.5957C51.422 20.2706 51.2558 19.4643 50.2809 18.5357C50.4098 18.4061 50.5387 18.2766 50.6715 18.1431Z" fill="#418CCE"/>
<path d="M43.6418 42.2915C43.7707 42.2915 43.8996 42.2915 44.0323 42.2915C43.8305 43.8645 43.2272 44.922 42.0797 46.0217C41.5404 46.274 41.5404 46.274 41.1033 46.4144C41.1678 46.2848 41.2322 46.1552 41.2986 46.0217C41.4275 46.0217 41.5564 46.0217 41.6891 46.0217C41.6247 45.7626 41.5603 45.5034 41.4939 45.2364C41.8161 45.2364 42.1382 45.2364 42.4702 45.2364C42.5991 44.8477 42.728 44.459 42.8607 44.0584C42.9896 44.0584 43.1185 44.0584 43.2513 44.0584C43.3801 43.4754 43.509 42.8923 43.6418 42.2915Z" fill="#23415B"/>
<path d="M52.8194 14.0203C52.8194 14.1498 52.8194 14.2794 52.8194 14.4129C52.4327 14.5425 52.0461 14.6721 51.6478 14.8056C51.6478 14.9999 51.6478 15.1943 51.6478 15.3946C51.9055 15.3946 52.1633 15.3946 52.4288 15.3946C52.5577 15.6537 52.6866 15.9129 52.8194 16.1799C52.5294 16.1021 52.2408 16.0194 51.9529 15.9345C51.7116 15.8661 51.7116 15.8661 51.4655 15.7964C51.062 15.5909 51.062 15.5909 50.9087 15.1768C50.8948 15.0543 50.881 14.9318 50.8667 14.8056C51.1184 14.6737 51.3708 14.5431 51.6234 14.4129C51.7638 14.34 51.9043 14.2671 52.049 14.1921C52.4288 14.0203 52.4288 14.0203 52.8194 14.0203Z" fill="#CCEFFB"/>
<path d="M38.3696 31.6897C39.014 31.7545 39.6584 31.8193 40.3223 31.886C40.2079 33.2473 40.2079 33.2473 40.127 33.653C39.9337 33.7502 39.9337 33.7502 39.7365 33.8493C39.3216 33.6652 39.3216 33.6652 38.9554 33.4566C39.1487 33.0679 39.3421 32.6792 39.5412 32.2787C39.1546 32.1491 38.768 32.0195 38.3696 31.886C38.3696 31.8212 38.3696 31.7564 38.3696 31.6897Z" fill="#2C3239"/>
<path d="M55.1626 9.70117C55.6781 9.70117 56.1936 9.70117 56.7247 9.70117C56.5958 10.0251 56.4669 10.3491 56.3342 10.6828C56.2053 10.4237 56.0764 10.1645 55.9436 9.8975C55.3254 10.0282 55.3254 10.0282 55.1298 10.5425C55.0641 10.7224 54.9984 10.9023 54.9307 11.0877C54.8635 11.2682 54.7963 11.4486 54.727 11.6345C54.6774 11.774 54.6278 11.9134 54.5768 12.0571C54.4479 11.7979 54.319 11.5388 54.1862 11.2718C54.3151 11.207 54.444 11.1422 54.5768 11.0755C54.5768 10.8163 54.5768 10.5572 54.5768 10.2902C54.7056 10.2902 54.8345 10.2902 54.9673 10.2902C55.0317 10.0958 55.0962 9.90143 55.1626 9.70117Z" fill="#4996D7"/>
<path d="M60.8253 5.97095C61.9579 6.40476 62.5594 7.1076 63.1685 8.13055C63.1685 8.26012 63.1685 8.3897 63.1685 8.5232C63.0397 8.5232 62.9108 8.5232 62.778 8.5232C62.778 8.39363 62.778 8.26405 62.778 8.13055C62.5203 8.00097 62.2625 7.8714 61.9969 7.73789C61.9969 7.60832 61.9969 7.47874 61.9969 7.34524C61.8439 7.2845 61.6909 7.22376 61.5332 7.16118C61.0206 6.95258 61.0206 6.95258 60.6301 6.75626C60.6945 6.4971 60.7589 6.23795 60.8253 5.97095Z" fill="#65A9DF"/>
<path d="M34.0737 47.396C35.4914 47.396 36.909 47.396 38.3696 47.396C38.3696 47.4608 38.3696 47.5256 38.3696 47.5923C38.1176 47.5951 37.8657 47.5979 37.6061 47.6008C37.2707 47.61 36.9354 47.6194 36.6 47.6291C36.3518 47.6308 36.3518 47.6308 36.0985 47.6326C34.861 47.6758 34.2364 47.963 33.2927 48.7703C33.3571 48.4463 33.4215 48.1224 33.4879 47.7887C33.6812 47.7887 33.8746 47.7887 34.0737 47.7887C34.0737 47.6591 34.0737 47.5295 34.0737 47.396Z" fill="#2B5070"/>
<path d="M41.4939 46.218C41.6228 46.2828 41.7517 46.3476 41.8845 46.4143C41.82 46.5439 41.7556 46.6735 41.6892 46.807C41.8825 46.8718 42.0758 46.9366 42.275 47.0033C42.2106 47.1329 42.1461 47.2625 42.0797 47.396C41.9347 47.3919 41.7898 47.3879 41.6404 47.3837C41.1611 47.3947 40.779 47.4563 40.3223 47.5923C40.3589 47.2365 40.3589 47.2365 40.5176 46.807C40.9936 46.4512 40.9936 46.4512 41.4939 46.218Z" fill="#4193D8"/>
<path d="M31.5353 45.4326C31.5997 45.5622 31.6642 45.6918 31.7306 45.8253C31.8594 45.8901 31.9883 45.9548 32.1211 46.0216C31.0396 47.1694 31.0396 47.1694 30.3637 47.3959C30.1704 47.3311 29.9771 47.2663 29.7779 47.1996C30.3578 46.6165 30.9378 46.0334 31.5353 45.4326Z" fill="#595D63"/>
<path d="M57.5058 16.7688C57.5058 17.4614 57.2586 17.7777 56.9108 18.3563C56.6326 18.9181 56.591 19.488 56.5295 20.1064C56.3342 20.3027 56.3342 20.3027 55.7362 20.315C55.5469 20.3109 55.3576 20.3069 55.1626 20.3027C55.2854 20.2893 55.4083 20.2759 55.5348 20.262C55.7372 20.185 55.7372 20.185 55.9437 20.1064C56.1392 19.691 56.1392 19.691 56.2366 19.1861C56.4852 18.2273 56.7966 17.4819 57.5058 16.7688Z" fill="#5397D0"/>
<path d="M34.4643 42.4878C34.6576 42.5526 34.8509 42.6174 35.0501 42.6841C34.9857 42.8137 34.9212 42.9433 34.8548 43.0768C34.6615 43.0768 34.4682 43.0768 34.269 43.0768C34.2489 43.1942 34.2288 43.3116 34.208 43.4326C34.0533 43.9277 33.8949 44.1363 33.488 44.4511C33.2946 44.4511 33.1013 44.4511 32.9022 44.4511C33.2245 43.6084 33.8272 43.1005 34.4643 42.4878Z" fill="#494E53"/>
<path d="M56.3342 10.8792C56.92 11.5908 56.92 11.5908 56.92 12.2534C57.1777 12.1887 57.4355 12.1239 57.701 12.0571C57.8926 12.6564 57.8926 13.0284 57.701 13.6277C56.3342 12.0364 56.3342 12.0364 56.3342 10.8792Z" fill="#4F97D8"/>
<path d="M54.1862 26.978C56.0505 27.735 56.0505 27.735 56.5904 28.5364C56.7492 29.0153 56.696 29.2576 56.5294 29.7266C56.5294 29.5322 56.5294 29.3379 56.5294 29.1376C56.4005 29.1376 56.2717 29.1376 56.1389 29.1376C56.1026 28.9878 56.0664 28.838 56.0291 28.6836C55.638 27.9486 55.1323 27.869 54.3815 27.567C54.317 27.3726 54.2526 27.1783 54.1862 26.978Z" fill="#5D9DD4"/>
<path d="M47.1567 18.9285C47.1567 19.5174 47.1567 19.5174 46.9614 19.9101C46.8326 19.9101 46.7037 19.9101 46.5709 19.9101C46.5709 20.1045 46.5709 20.2988 46.5709 20.4991C45.8177 20.9218 45.2917 21.1651 44.423 21.0881C44.5307 21.042 44.6384 20.9959 44.7494 20.9485C45.3199 20.6309 45.75 20.2312 46.2292 19.7874C46.4905 19.5467 46.4905 19.5467 46.757 19.3012C46.8889 19.1782 47.0208 19.0552 47.1567 18.9285Z" fill="#254661"/>
<path d="M34.0738 37.9722C34.3315 38.037 34.5893 38.1017 34.8548 38.1685C34.2749 38.7516 33.695 39.3347 33.0974 39.9354C32.9686 39.7411 32.8397 39.5467 32.7069 39.3465C32.9365 39.2796 32.9365 39.2796 33.1707 39.2115C33.726 38.9968 33.726 38.9968 33.9395 38.4384C33.9838 38.2846 34.0281 38.1307 34.0738 37.9722Z" fill="#595F65"/>
<path d="M22.553 49.752C22.6819 49.8815 22.8107 50.0111 22.9435 50.1446C22.5569 50.5981 22.1703 51.0516 21.7719 51.5189C21.5142 51.3893 21.2564 51.2597 20.9908 51.1262C21.473 50.6159 22.0024 50.1858 22.553 49.752Z" fill="#4C5158"/>
<path d="M46.3756 35.0273C46.44 35.0273 46.5045 35.0273 46.5708 35.0273C46.5708 35.4809 46.5708 35.9344 46.5708 36.4016C46.3775 36.4988 46.3775 36.4988 46.1803 36.598C45.959 36.9939 45.959 36.9939 45.7898 37.3833C45.5965 37.2537 45.4032 37.1241 45.204 36.9906C45.3329 36.9906 45.4617 36.9906 45.5945 36.9906C45.6509 36.776 45.7073 36.5614 45.7654 36.3403C45.985 35.6163 45.985 35.6163 46.3756 35.0273Z" fill="#519BD9"/>
<path d="M30.7543 35.4199C30.9476 35.4847 31.1409 35.5495 31.3401 35.6162C31.3401 36.005 31.3401 36.3937 31.3401 36.7942C30.9535 36.6646 30.5669 36.5351 30.1685 36.4016C30.1685 36.272 30.1685 36.1424 30.1685 36.0089C30.2974 36.0089 30.4263 36.0089 30.5591 36.0089C30.6235 35.8145 30.6879 35.6202 30.7543 35.4199Z" fill="#4F535C"/>
<path d="M42.0796 31.8861C42.0796 31.9509 42.0796 32.0157 42.0796 32.0824C41.2097 32.1796 41.2097 32.1796 40.3222 32.2788C40.3222 32.1492 40.3222 32.0196 40.3222 31.8861C39.9356 31.8861 39.549 31.8861 39.1506 31.8861C39.1506 31.8213 39.1506 31.7565 39.1506 31.6898C40.2623 31.4569 40.9912 31.5597 42.0796 31.8861ZM40.127 32.2788C40.1914 32.4083 40.2558 32.5379 40.3222 32.6714C40.1934 32.6066 40.0645 32.5418 39.9317 32.4751C39.9961 32.4103 40.0606 32.3455 40.127 32.2788Z" fill="#797F83"/>
<path d="M52.0383 30.3154C52.2235 30.3843 52.4088 30.4531 52.5997 30.524C53.1846 30.7769 53.1846 30.7769 53.6004 30.5118C53.6648 30.7061 53.7293 30.9005 53.7957 31.1007C53.6668 31.1007 53.5379 31.1007 53.4051 31.1007C53.4051 31.4247 53.4051 31.7486 53.4051 32.0824C53.2118 32.1796 53.2118 32.1796 53.0146 32.2787C53.079 31.9548 53.1435 31.6308 53.2099 31.2971C53.0891 31.2444 52.9682 31.1918 52.8437 31.1376C52.4288 30.9044 52.4288 30.9044 52.0383 30.3154Z" fill="#4F9ADA"/>
<path d="M39.346 37.5796C39.5393 37.7092 39.7326 37.8387 39.9318 37.9722C39.811 38.0208 39.6901 38.0694 39.5657 38.1195C39.0822 38.4054 38.965 38.6355 38.7602 39.1502C38.5669 39.0206 38.3735 38.8911 38.1744 38.7576C38.561 38.3688 38.9476 37.9801 39.346 37.5796Z" fill="#444A50"/>
<path d="M32.7069 48.3774C32.7713 48.507 32.8358 48.6366 32.9022 48.7701C33.031 48.8349 33.1599 48.8997 33.2927 48.9664C32.7128 49.4523 32.7128 49.4523 32.1211 49.9481C32.1211 49.4945 32.1211 49.041 32.1211 48.5738C32.3144 48.509 32.5077 48.4442 32.7069 48.3774Z" fill="#2B4052"/>
<path d="M35.8312 36.2053C36.0245 36.2053 36.2178 36.2053 36.417 36.2053C36.1079 37.0445 35.5372 37.4354 34.8549 37.9723C34.9193 37.7131 34.9837 37.454 35.0501 37.187C35.179 37.187 35.3079 37.187 35.4407 37.187C35.5695 36.863 35.6984 36.5391 35.8312 36.2053Z" fill="#585D63"/>
<path d="M56.7248 23.8367C56.9825 23.8367 57.2403 23.8367 57.5059 23.8367C57.6347 24.355 57.7636 24.8733 57.8964 25.4073C57.7031 25.3425 57.5098 25.2777 57.3106 25.211C57.2462 25.0166 57.1817 24.8222 57.1153 24.622C56.9865 24.622 56.8576 24.622 56.7248 24.622C56.7248 24.3628 56.7248 24.1037 56.7248 23.8367Z" fill="#D8F2FD"/>
<path d="M49.6952 21.4807C50.0818 21.4807 50.4684 21.4807 50.8668 21.4807C50.8023 21.6751 50.7379 21.8694 50.6715 22.0697C50.4782 22.0697 50.2849 22.0697 50.0857 22.0697C50.0213 22.3288 49.9568 22.588 49.8904 22.855C49.6971 22.7902 49.5038 22.7254 49.3046 22.6587C49.4335 22.6587 49.5624 22.6587 49.6952 22.6587C49.6952 22.2699 49.6952 21.8812 49.6952 21.4807Z" fill="#4C535A"/>
<path d="M31.34 50.7334C31.4045 50.9278 31.4689 51.1221 31.5353 51.3224C31.3156 51.7396 31.3156 51.7396 30.9495 52.1077C30.4247 52.2549 30.4247 52.2549 29.9731 52.304C30.1642 52.079 30.3555 51.854 30.5467 51.6291C30.6532 51.5039 30.7597 51.3786 30.8694 51.2495C31.0213 51.0731 31.1759 50.8984 31.34 50.7334Z" fill="#4791CD"/>
<path d="M29.7779 36.4016C29.9068 36.4664 30.0356 36.5312 30.1684 36.5979C30.0396 36.7275 29.9107 36.8571 29.7779 36.9906C29.8423 37.1202 29.9068 37.2497 29.9732 37.3832C29.9087 37.5128 29.8443 37.6424 29.7779 37.7759C29.2624 37.7759 28.7469 37.7759 28.2158 37.7759C28.8016 37.3832 28.8016 37.3832 29.1921 37.3832C29.2525 37.2577 29.3129 37.1322 29.3752 37.0029C29.5826 36.5979 29.5826 36.5979 29.7779 36.4016Z" fill="#767D83"/>
<path d="M29.9731 51.3225C30.2308 51.3873 30.4886 51.4521 30.7542 51.5188C30.5023 51.7889 30.2412 52.0504 29.9731 52.3041C29.8442 52.3041 29.7153 52.3041 29.5826 52.3041C29.5181 52.4985 29.4537 52.6929 29.3873 52.8931C29.3228 52.634 29.2584 52.3748 29.192 52.1078C29.4498 52.043 29.7075 51.9782 29.9731 51.9115C29.9731 51.7171 29.9731 51.5228 29.9731 51.3225Z" fill="#25425B"/>
<path d="M62.1922 50.1445C62.3856 50.1445 62.5789 50.1445 62.778 50.1445C62.7099 50.7837 62.5786 50.9335 62.0824 51.3716C61.9253 51.485 61.7683 51.5983 61.6064 51.7151C61.7133 51.0526 61.8124 50.7173 62.1922 50.1445Z" fill="#63A8E0"/>
<path d="M41.6891 34.2419C41.818 34.4363 41.9469 34.6307 42.0797 34.8309C41.8219 35.0901 41.5642 35.3492 41.2986 35.6162C41.2986 35.4219 41.2986 35.2275 41.2986 35.0273C41.1697 35.0273 41.0409 35.0273 40.9081 35.0273C40.9725 34.8329 41.037 34.6385 41.1033 34.4383C41.2967 34.3735 41.49 34.3087 41.6891 34.2419Z" fill="#2D343C"/>
<path d="M27.6299 49.3591C28.0204 49.9481 28.0204 49.9481 28.0204 50.3408C27.6982 50.4703 27.3761 50.5999 27.0441 50.7334C26.9152 50.6038 26.7863 50.4743 26.6536 50.3408C26.9758 50.0168 27.2979 49.6929 27.6299 49.3591Z" fill="#686E74"/>
<path d="M24.8962 47.7886C24.6241 48.4496 24.3145 48.7675 23.7246 49.1629C23.6601 48.9037 23.5957 48.6446 23.5293 48.3776C23.6582 48.3128 23.787 48.248 23.9198 48.1812C24.5056 47.7886 24.5056 47.7886 24.8962 47.7886Z" fill="#4C5156"/>
<path d="M27.8252 44.2546C27.954 44.3194 28.0829 44.3842 28.2157 44.451C27.9246 45.1961 27.4821 45.5524 26.8488 46.0216C26.7844 45.8272 26.72 45.6329 26.6536 45.4326C26.8106 45.384 26.9677 45.3354 27.1295 45.2854C27.6633 45.0945 27.6633 45.0945 27.7886 44.6228C27.8006 44.5013 27.8127 44.3798 27.8252 44.2546Z" fill="#585D63"/>
<path d="M7.12679 36.9907C7.41676 37.1851 7.41676 37.1851 7.71259 37.3834C8.11273 37.472 8.11273 37.472 8.53027 37.5061C8.77594 37.5304 9.02161 37.5547 9.27472 37.5797C9.27472 37.6445 9.27472 37.7093 9.27472 37.776C8.75922 37.776 8.24371 37.776 7.71259 37.776C7.64815 37.9056 7.58371 38.0352 7.51732 38.1687C7.32401 38.0391 7.13069 37.9095 6.93152 37.776C6.99596 37.5169 7.06039 37.2577 7.12679 36.9907Z" fill="#61686F"/>
<path d="M37.0027 34.8311C37.5153 34.7943 37.5153 34.7943 37.9791 34.8311C37.6569 35.2198 37.3347 35.6085 37.0027 36.009C36.8094 35.9443 36.6161 35.8795 36.4169 35.8127C36.6122 35.4201 36.6122 35.4201 37.0027 34.8311Z" fill="#545A5F"/>
<path d="M25.482 55.838C26.0068 55.7767 26.0068 55.7767 26.4584 55.838C26.4584 55.9676 26.4584 56.0972 26.4584 56.2307C26.0754 56.5034 25.6848 56.7659 25.2868 57.016C25.1579 56.9512 25.029 56.8864 24.8962 56.8196C25.1281 56.3288 25.1281 56.3288 25.482 55.838Z" fill="#7B8187"/>
<path d="M28.8017 48.1812C28.995 48.2459 29.1883 48.3107 29.3875 48.3775C29.0543 48.924 28.9039 49.1341 28.2769 49.31C28.0534 49.3343 28.0534 49.3343 27.8253 49.3591C28.1475 48.9704 28.4697 48.5817 28.8017 48.1812Z" fill="#666B70"/>
<path d="M0.487793 42.6841C0.681107 42.6841 0.874422 42.6841 1.07359 42.6841C1.00916 42.9432 0.944718 43.2024 0.878327 43.4694C1.0072 43.4694 1.13608 43.4694 1.26886 43.4694C1.3333 43.8581 1.39774 44.2468 1.46413 44.6474C1.00733 44.2298 0.720837 43.8498 0.487793 43.2731C0.487793 43.0787 0.487793 42.8843 0.487793 42.6841Z" fill="#6D7176"/>
<path d="M40.3223 33.2605C40.5156 33.2605 40.7089 33.2605 40.9081 33.2605C40.7792 33.714 40.6504 34.1675 40.5176 34.6348C40.2598 34.3756 40.0021 34.1165 39.7365 33.8495C39.9298 33.8495 40.1231 33.8495 40.3223 33.8495C40.3223 33.6551 40.3223 33.4608 40.3223 33.2605Z" fill="#545B61"/>
<path d="M17.8667 50.9299C18.1245 51.1891 18.3822 51.4482 18.6478 51.7152C18.4545 52.104 18.2611 52.4927 18.062 52.8932C17.9975 52.8932 17.9331 52.8932 17.8667 52.8932C17.8667 52.2453 17.8667 51.5974 17.8667 50.9299Z" fill="#5A6167"/>
<path d="M37.7838 30.5117C38.1743 31.1007 38.1743 31.1007 38.1743 31.4934C38.4965 31.4934 38.8187 31.4934 39.1507 31.4934C38.6337 31.7801 38.3902 31.886 37.7838 31.886C37.6014 31.295 37.5798 31.1269 37.7838 30.5117Z" fill="#717A80"/>
<path d="M56.7248 16.7688C56.9826 16.8336 57.2403 16.8984 57.5059 16.9651C57.1837 17.4834 56.8615 18.0017 56.5296 18.5357C56.2844 17.7963 56.4572 17.4811 56.7248 16.7688Z" fill="#DCF3FD"/>
<path d="M59.2632 14.4131C59.7465 14.5103 59.7465 14.5103 60.2396 14.6094C60.2396 14.9334 60.2396 15.2573 60.2396 15.591C59.9818 15.6558 59.7241 15.7206 59.4585 15.7874C59.5874 15.4634 59.7163 15.1395 59.849 14.8057C59.6557 14.741 59.4624 14.6762 59.2632 14.6094C59.2632 14.5446 59.2632 14.4798 59.2632 14.4131Z" fill="#D3F2FD"/>
<path d="M40.7128 0.866211C42.0553 1.60244 42.0553 1.60244 42.275 2.04417C41.9528 2.04417 41.6306 2.04417 41.2986 2.04417C41.2342 1.78502 41.1698 1.52587 41.1034 1.25887C40.9745 1.25887 40.8456 1.25887 40.7128 1.25887C40.7128 1.12929 40.7128 0.999714 40.7128 0.866211Z" fill="#777F85"/>
<path d="M30.559 50.3408C30.9456 50.3408 31.3322 50.3408 31.7306 50.3408C31.4084 50.6648 31.0862 50.9887 30.7542 51.3225C30.6898 50.9985 30.6254 50.6746 30.559 50.3408Z" fill="#294257"/>
<path d="M43.2513 21.4807C43.4446 21.6751 43.638 21.8694 43.8371 22.0697C43.7727 22.2641 43.7083 22.4584 43.6419 22.6587C43.3197 22.3995 42.9975 22.1404 42.6655 21.8734C42.8588 21.7438 43.0522 21.6142 43.2513 21.4807Z" fill="#3B4853"/>
<path d="M54.3816 18.1431C54.5749 18.2402 54.5749 18.2402 54.7721 18.3394C54.8517 18.7952 54.9175 19.2537 54.9674 19.7137C54.7741 19.7137 54.5808 19.7137 54.3816 19.7137C54.3816 19.1954 54.3816 18.6771 54.3816 18.1431Z" fill="#4A97D9"/>
<path d="M7.12686 9.70117C7.1913 9.83075 7.25574 9.96032 7.32213 10.0938C7.45101 10.0938 7.57988 10.0938 7.71266 10.0938C7.5174 10.4865 7.32213 10.8791 7.12686 11.2718C6.99799 11.2718 6.86911 11.2718 6.73633 11.2718C6.73633 11.0774 6.73633 10.8831 6.73633 10.6828C6.8652 10.6828 6.99408 10.6828 7.12686 10.6828C7.12686 10.3589 7.12686 10.0349 7.12686 9.70117Z" fill="#545A60"/>
<path d="M4.58849 0.473633C4.71736 0.538421 4.84624 0.603209 4.97902 0.66996C4.97902 0.9939 4.97902 1.31784 4.97902 1.6516C4.60069 1.49208 4.60069 1.49208 4.19795 1.25894C4.13351 1.06458 4.06908 0.870214 4.00269 0.66996C4.196 0.605172 4.38931 0.540384 4.58849 0.473633Z" fill="#5C6168"/>
</g>
<defs>
<clipPath id="clip0_2318_11722">
<rect width="64" height="57.4823" fill="white"/>
</clipPath>
</defs>
</svg>
